<?xml version="1.0" standalone="no"?>
<!DOCTYPE svg PUBLIC "-//W3C//DTD SVG 20010904//EN"
 "http://www.w3.org/TR/2001/REC-SVG-20010904/DTD/svg10.dtd">
<svg version="1.0" xmlns="http://www.w3.org/2000/svg"
 width="2054.000000pt" height="2048.000000pt" viewBox="0 0 2054.000000 2048.000000"
 preserveAspectRatio="xMidYMid meet">

<g transform="translate(0.000000,2048.000000) scale(0.100000,-0.100000)"
fill="#000000" stroke="none">
<path d="M12756 20344 c-75 -18 -167 -65 -381 -191 -93 -55 -393 -229 -665
-385 -491 -283 -2788 -1608 -3825 -2208 -297 -172 -628 -363 -735 -425 -107
-62 -350 -202 -540 -312 -372 -215 -936 -541 -1465 -846 -181 -105 -544 -314
-805 -465 -261 -152 -648 -375 -860 -497 -1177 -677 -1128 -648 -1202 -714
-91 -81 -177 -237 -220 -400 -20 -75 -20 -99 -18 -1596 1 -835 3 -1522 4
-1525 2 -3 7 -828 11 -1835 16 -3806 19 -4193 39 -4255 35 -106 192 -230 350
-275 85 -25 227 -17 317 18 86 33 752 414 1319 756 l135 81 5 -273 c8 -369 8
-370 240 -481 147 -70 209 -81 281 -49 24 11 217 120 429 243 212 123 538 312
725 420 187 108 528 306 757 438 229 133 420 242 425 242 5 0 27 -13 49 -29
62 -45 787 -458 853 -486 254 -106 604 -113 896 -17 111 37 204 86 650 349
215 126 478 280 585 343 600 348 631 370 697 495 84 159 85 387 3 515 -33 51
-93 116 -142 153 -32 25 -264 161 -525 310 -68 38 -123 72 -123 76 0 6 296
180 1185 697 806 468 1835 1064 2060 1194 121 70 312 181 425 247 113 66 351
204 530 307 296 170 331 194 395 259 74 76 119 151 163 270 l27 72 3 558 3
558 76 -53 c42 -29 88 -65 103 -80 l27 -26 -14 -69 c-10 -45 -11 -74 -5 -88
14 -28 169 -204 337 -380 142 -150 321 -315 425 -392 149 -111 284 -143 403
-94 85 34 263 192 422 374 60 69 111 125 112 124 8 -9 -39 -973 -57 -1177 -16
-176 -79 -1033 -90 -1235 -6 -104 -10 -264 -8 -355 l3 -164 40 -27 c22 -14 64
-39 92 -55 l53 -29 5 -204 c6 -221 20 -377 66 -689 54 -379 129 -1141 129
-1326 0 -65 -9 -245 -21 -399 -14 -196 -17 -288 -10 -303 9 -21 1 -29 -85 -94
-118 -90 -237 -152 -424 -225 -230 -89 -280 -131 -280 -235 0 -49 3 -56 43
-95 78 -78 271 -117 471 -96 129 14 207 37 349 103 93 43 113 49 145 43 20 -5
84 -8 142 -9 157 0 252 40 286 121 17 39 18 141 3 250 -10 78 -10 81 14 107
l25 26 5 433 c3 272 12 519 23 667 12 156 18 340 18 545 0 293 -1 322 -31 535
-37 266 -48 463 -30 570 l12 75 85 7 c46 4 86 5 89 3 2 -3 14 -76 27 -162 13
-87 37 -223 54 -303 80 -388 160 -958 160 -1141 l0 -37 -42 15 c-59 20 -159
13 -195 -13 -48 -35 -64 -79 -61 -164 5 -127 69 -226 234 -361 57 -47 81 -74
114 -136 23 -43 58 -95 78 -116 93 -96 297 -105 380 -15 l23 25 72 -18 c120
-32 242 -42 346 -30 219 27 381 115 381 207 0 46 -40 88 -119 129 -79 39 -102
62 -80 76 23 15 48 11 215 -32 137 -35 171 -40 246 -37 77 3 91 6 129 33 56
39 82 86 83 145 2 90 -58 144 -235 215 -126 51 -147 64 -127 76 20 13 97 11
215 -7 161 -24 241 -6 262 58 14 41 4 76 -43 161 -38 67 -46 120 -25 160 7 12
47 59 91 105 43 45 83 94 88 108 37 96 -46 162 -189 151 -86 -6 -161 -33 -281
-102 -135 -77 -167 -74 -209 20 -10 24 -28 48 -39 54 -50 27 -132 2 -193 -59
-42 -42 -51 -60 -93 -188 -26 -78 -52 -144 -57 -148 -14 -8 -39 59 -39 104 0
56 17 98 66 169 56 79 109 124 209 178 74 39 83 42 114 31 30 -10 36 -18 52
-72 24 -78 55 -109 103 -100 44 8 76 47 76 93 0 31 2 33 25 27 40 -10 71 3 85
35 16 39 -3 78 -51 106 l-36 20 19 30 c23 39 24 97 0 118 -23 21 -85 22 -102
2 -18 -22 -26 -19 -40 16 -17 40 -62 61 -103 46 -35 -12 -59 -62 -51 -106 6
-28 4 -30 -27 -33 -43 -4 -61 -35 -47 -84 5 -19 6 -38 3 -43 -3 -6 -38 -31
-78 -57 -39 -26 -91 -66 -115 -88 -51 -48 -50 -45 28 119 62 132 150 279 202
338 28 33 43 41 103 53 94 20 153 49 161 81 9 35 -8 47 -77 53 l-60 5 74 100
c177 241 242 397 235 562 -2 63 -8 88 -24 110 -72 97 -213 107 -379 28 -84
-40 -187 -116 -243 -181 -40 -44 -43 -46 -60 -30 -27 24 -66 20 -97 -12 -25
-25 -27 -31 -23 -92 l5 -66 -35 0 c-62 0 -99 -66 -71 -128 10 -20 8 -29 -9
-53 -31 -44 -117 -221 -142 -293 -29 -81 -40 -95 -40 -49 0 19 -18 141 -40
272 -39 231 -52 407 -30 407 18 0 201 184 227 228 25 42 26 48 20 155 -13 221
-65 676 -191 1672 -63 496 -78 697 -60 826 l6 44 72 0 c105 1 169 26 238 95
132 132 131 288 -8 912 -83 374 -147 596 -203 707 -24 46 -95 112 -151 141
-23 12 -90 32 -149 46 -96 21 -109 27 -134 58 -33 42 -83 61 -120 47 -23 -9
-30 -5 -66 34 -48 52 -51 65 -13 65 61 0 122 64 122 130 0 26 4 30 28 30 38 1
104 33 135 66 33 35 57 104 57 162 0 38 2 43 15 32 8 -7 15 -28 15 -47 0 -38
15 -36 31 4 11 30 -2 59 -33 69 -20 6 -20 7 8 19 84 35 129 166 90 260 l-15
35 33 0 c61 0 87 60 44 100 l-23 21 -8 -33 c-11 -44 -21 -52 -53 -44 l-27 7
25 27 c61 65 84 168 54 246 -16 41 -76 108 -106 118 -10 3 -8 10 8 26 22 22
30 52 13 52 -5 0 -14 -7 -21 -15 -7 -8 -17 -15 -23 -15 -7 0 -7 4 1 12 16 16
16 70 0 86 -20 20 -24 14 -20 -28 4 -38 -9 -70 -28 -70 -5 0 -11 19 -15 43
-21 123 -123 209 -230 192 -43 -6 -44 -5 -63 32 -24 47 -47 68 -95 88 -48 20
-113 19 -162 -3 l-40 -18 -27 38 c-41 55 -99 82 -178 82 -73 0 -108 -14 -158
-65 l-32 -32 -49 26 c-85 47 -201 32 -273 -35 -44 -42 -62 -87 -62 -155 0 -60
0 -61 -20 -47 -27 18 -86 19 -86 0 0 -8 9 -24 19 -37 16 -19 22 -22 32 -11 15
14 45 16 53 3 3 -5 -12 -20 -33 -34 -27 -18 -44 -40 -56 -71 -23 -59 -14 -107
30 -154 32 -35 36 -37 98 -36 l63 1 -29 -71 c-17 -42 -29 -89 -29 -114 0 -39
-2 -43 -29 -49 -46 -9 -54 -27 -54 -127 0 -50 4 -102 7 -117 6 -20 0 -34 -32
-73 -29 -35 -40 -57 -40 -81 0 -43 39 -90 88 -106 20 -6 40 -14 44 -18 3 -3
23 -80 43 -171 20 -91 44 -180 53 -199 33 -67 119 -87 247 -57 33 8 61 13 63
11 8 -7 22 -82 22 -116 0 -32 -5 -39 -50 -68 -28 -18 -60 -50 -72 -71 -19 -33
-29 -39 -68 -45 -94 -14 -193 -79 -220 -145 -8 -20 -36 -41 -93 -71 -95 -52
-190 -141 -259 -244 -25 -38 -107 -169 -181 -290 -237 -388 -366 -583 -419
-632 -23 -22 -25 -22 -50 -5 -57 37 -286 208 -336 250 l-53 45 263 149 c312
177 324 185 339 220 15 38 12 54 -97 411 -133 438 -309 997 -333 1058 -14 39
-49 59 -101 59 -36 0 -75 -15 -194 -75 l-150 -75 -26 25 c-37 35 -83 47 -139
34 -76 -17 -121 -75 -121 -158 0 -38 -4 -43 -57 -78 -31 -21 -72 -48 -91 -61
-18 -13 -36 -21 -40 -18 -3 3 0 1215 6 2693 7 1689 8 2706 2 2736 -22 113 -91
191 -230 260 -60 30 -72 32 -165 32 l-100 0 -95 -49 c-52 -27 -247 -136 -433
-243 -186 -107 -340 -193 -342 -191 -2 2 -7 386 -12 853 l-8 850 -33 67 c-21
43 -51 84 -86 115 -60 55 -211 134 -301 158 -72 18 -190 18 -269 -1z m84 -44
c-8 -5 -24 -9 -35 -9 -16 1 -16 2 5 9 35 11 48 11 30 0z m156 -1 c52 -13 65
-26 26 -26 -15 0 -35 -3 -44 -7 -12 -5 -18 -4 -18 4 0 6 5 8 10 5 6 -3 10 -1
10 4 0 12 1 12 -57 15 -24 2 -46 6 -50 9 -10 11 74 8 123 -4z m-279 -35 c-3
-3 -12 -4 -19 -1 -8 3 -5 6 6 6 11 1 17 -2 13 -5z m-552 -326 c5 4 5 1 1 -6
-6 -10 -11 -10 -22 -1 -8 6 -14 14 -14 16 0 3 6 0 13 -6 8 -6 18 -7 22 -3z
m283 -13 c-3 -3 -9 2 -12 12 -6 14 -5 15 5 6 7 -7 10 -15 7 -18z m576 -348
c21 -28 21 -34 24 -775 l2 -747 -147 -84 c-82 -47 -301 -173 -488 -281 -187
-108 -520 -301 -740 -427 -220 -127 -569 -329 -775 -448 -206 -119 -512 -296
-680 -393 -168 -96 -516 -297 -775 -447 -258 -149 -677 -391 -930 -537 -741
-428 -1248 -721 -1930 -1115 -352 -203 -764 -441 -915 -528 -630 -362 -1159
-670 -1211 -706 -114 -77 -207 -210 -245 -349 -16 -61 -17 -142 -15 -1190 1
-619 6 -1840 11 -2715 5 -874 10 -1779 10 -2010 l0 -420 -33 -19 c-17 -10
-167 -96 -332 -191 -165 -95 -437 -253 -605 -350 -168 -97 -315 -181 -327
-186 -35 -13 -70 5 -81 43 -7 22 -13 834 -18 2373 -3 1287 -8 2355 -9 2373 -2
18 -4 736 -6 1595 l-3 1562 23 67 c25 75 64 134 113 171 30 22 288 172 937
544 130 75 367 211 526 303 160 92 441 254 625 360 559 322 1573 907 2200
1270 327 189 703 406 1815 1047 143 82 607 350 1030 595 424 244 910 525 1080
623 171 98 409 235 530 305 381 220 1148 663 1200 692 64 36 110 34 139 -5z
m-1584 -41 c0 -3 -4 -8 -10 -11 -5 -3 -10 -1 -10 4 0 6 5 11 10 11 6 0 10 -2
10 -4z m-35 -25 c-3 -6 -11 -11 -17 -11 -6 0 -6 6 2 15 14 17 26 13 15 -4z
m-148 -96 c0 -8 -4 -12 -9 -9 -4 3 -8 9 -8 15 0 5 4 9 8 9 5 0 9 -7 9 -15z
m-187 -115 c0 -5 -2 -10 -4 -10 -3 0 -8 5 -11 10 -3 6 -1 10 4 10 6 0 11 -4
11 -10z m-56 -41 c-3 -5 -10 -7 -15 -3 -5 3 -7 10 -3 15 3 5 10 7 15 3 5 -3 7
-10 3 -15z m-179 -85 c-23 -17 -32 -10 -15 11 7 8 17 12 23 8 6 -4 3 -11 -8
-19z m-20 -33 c-3 -2 -11 1 -18 8 -11 9 -17 8 -27 -4 -15 -18 -30 -20 -30 -3
0 6 3 9 6 5 4 -3 13 0 21 8 11 12 18 12 33 3 11 -7 17 -14 15 -17z m-85 -15
c0 -3 -4 -8 -10 -11 -5 -3 -10 -1 -10 4 0 6 5 11 10 11 6 0 10 -2 10 -4z m170
0 c0 -2 -7 -7 -16 -10 -8 -3 -12 -2 -9 4 6 10 25 14 25 6z m-266 -61 c-4 -8
-8 -15 -10 -15 -2 0 -4 7 -4 15 0 8 4 15 10 15 5 0 7 -7 4 -15z m-24 -11 c0
-8 -5 -12 -10 -9 -6 4 -8 11 -5 16 9 14 15 11 15 -7z m-11 -28 c7 -8 8 -17 3
-20 -6 -3 -12 3 -15 14 -6 24 -4 25 12 6z m-69 -15 c0 -5 -11 -16 -24 -25 -19
-12 -27 -13 -32 -3 -4 6 -4 9 0 5 5 -4 17 2 29 13 23 21 27 23 27 10z m30 -1
c0 -5 -5 -10 -11 -10 -5 0 -7 5 -4 10 3 6 8 10 11 10 2 0 4 -4 4 -10z m175 0
c3 -5 1 -10 -4 -10 -6 0 -11 5 -11 10 0 6 2 10 4 10 3 0 8 -4 11 -10z m-80
-30 c3 -6 -1 -7 -9 -4 -18 7 -21 14 -7 14 6 0 13 -4 16 -10z m-35 -15 c0 -2
-9 -3 -19 -2 -11 0 -18 5 -15 9 4 6 34 0 34 -7z m-200 -49 c0 -4 -9 -1 -19 6
-11 7 -17 16 -15 20 5 8 34 -15 34 -26z m-135 -67 c-10 -15 -25 -10 -19 6 4 8
10 12 15 9 5 -3 7 -10 4 -15z m-31 -14 c11 -8 15 -15 10 -15 -6 0 -15 5 -22
12 -9 9 -12 9 -12 0 0 -7 7 -15 15 -18 22 -9 6 -26 -17 -18 -15 5 -19 3 -13
-7 6 -10 5 -11 -4 -3 -8 7 -8 17 1 37 15 31 16 31 42 12z m42 -10 c-3 -8 0
-15 6 -15 6 0 9 -3 5 -6 -10 -11 -26 6 -20 21 3 8 7 15 10 15 3 0 3 -7 -1 -15z
m-126 -20 c-7 -9 -15 -13 -19 -10 -3 3 1 10 9 15 21 14 24 12 10 -5z m-34 -27
c4 -7 3 -8 -4 -4 -7 4 -12 2 -12 -4 0 -6 -5 -8 -11 -4 -8 4 -7 9 2 15 18 11
17 11 25 -3z m4387 -52 c26 -8 68 -26 94 -41 l46 -28 -89 -42 c-49 -23 -133
-68 -188 -99 -54 -31 -100 -56 -103 -56 -2 0 -20 -11 -40 -25 -20 -13 -40 -22
-45 -19 -4 3 -8 1 -8 -4 0 -5 -11 -8 -24 -7 -16 2 -23 -2 -22 -12 2 -25 -404
-258 -436 -250 -11 3 -22 -2 -28 -14 -6 -10 -18 -19 -26 -19 -9 0 -13 -5 -9
-12 4 -7 0 -5 -9 6 -8 10 -20 15 -26 11 -9 -6 -9 -9 1 -15 17 -11 1 -26 -81
-77 -72 -45 -279 -163 -286 -163 -2 0 -22 -11 -44 -25 -22 -14 -40 -22 -40
-18 0 5 -4 3 -8 -3 -12 -18 -90 -64 -692 -409 -528 -303 -808 -464 -1200 -690
-217 -125 -530 -305 -695 -400 -1024 -588 -1439 -826 -1830 -1050 -627 -359
-1194 -685 -1530 -880 -159 -93 -398 -230 -530 -305 -252 -144 -673 -385
-1315 -755 -440 -254 -445 -257 -455 -247 -5 4 -5 2 -1 -5 4 -7 -7 -16 -29
-24 -19 -7 -35 -17 -35 -22 0 -6 -5 -5 -12 0 -7 6 -21 13 -30 16 -15 5 -16 2
-8 -19 9 -23 9 -24 -14 -9 -19 13 -23 13 -23 1 0 -8 6 -12 14 -9 33 13 7 -17
-52 -61 -77 -56 -138 -124 -171 -188 -13 -27 -26 -48 -29 -48 -4 0 -194 136
-204 146 -8 8 55 87 107 135 63 58 197 139 230 139 12 0 25 7 28 15 4 10 13
13 24 10 17 -5 34 9 35 27 0 14 4 16 940 553 283 163 644 371 1135 655 206
120 668 386 1025 593 358 206 702 405 765 442 63 37 266 154 450 259 184 106
448 258 585 338 138 79 491 283 785 453 294 169 609 352 700 405 91 54 277
161 414 240 138 78 329 188 425 244 209 122 708 410 909 525 78 44 146 81 151
81 5 0 14 7 21 15 7 9 20 13 29 10 8 -3 12 -3 8 1 -12 13 378 248 395 238 4
-3 8 -1 8 4 0 5 10 8 23 8 12 -1 21 4 20 10 -1 6 9 16 22 22 17 8 25 8 25 1 0
-6 5 -7 10 -4 6 4 8 10 5 15 -3 4 48 39 113 77 166 99 252 145 252 136 0 -4 4
-3 8 4 8 13 200 126 297 176 114 58 182 69 268 43z m-4518 -16 c-3 -5 -12 -10
-18 -10 -7 0 -6 4 3 10 19 12 23 12 15 0z m-86 -61 c-16 -10 -23 -4 -14 10 3
6 11 8 17 5 6 -4 5 -9 -3 -15z m41 -4 c0 -8 -4 -15 -9 -15 -5 0 -18 -3 -28 -7
-16 -5 -16 -4 2 15 24 25 35 27 35 7z m120 -29 c0 -2 -8 -10 -17 -17 -16 -13
-17 -12 -4 4 13 16 21 21 21 13z m-510 -150 c0 -2 -8 -10 -17 -17 -16 -13 -17
-12 -4 4 13 16 21 21 21 13z m-116 -75 c-10 -10 -21 -16 -24 -14 -3 3 4 11 14
19 28 20 33 17 10 -5z m5056 -59 c61 -49 18 -194 -71 -242 -40 -21 -51 -22
-73 -12 -77 35 -42 203 54 253 43 24 62 24 90 1z m-5185 -12 c-3 -5 -2 -10 4
-10 5 0 12 6 14 13 4 9 6 9 6 -1 1 -14 -26 -28 -35 -19 -6 6 4 27 12 27 3 0 2
-4 -1 -10z m86 -13 c-10 -9 -11 -8 -5 6 3 10 9 15 12 12 3 -3 0 -11 -7 -18z
m-221 -61 c0 -2 -8 -10 -17 -17 -16 -13 -17 -12 -4 4 13 16 21 21 21 13z m-80
-51 c-7 -8 -18 -15 -24 -15 -6 0 -2 7 8 15 25 19 32 19 16 0z m-104 -60 c-11
-8 -25 -15 -30 -15 -6 1 0 7 14 15 32 19 40 18 16 0z m5158 -17 c36 -50 8
-160 -53 -211 -31 -26 -51 -32 -96 -27 -77 7 -50 176 38 238 42 29 91 29 111
0z m621 -2560 l-8 -2523 -75 -45 c-103 -62 -115 -80 -109 -155 3 -33 30 -135
59 -226 l55 -166 -24 -29 c-53 -66 -82 -252 -64 -414 16 -149 25 -171 93 -236
l59 -57 -3 -556 -3 -556 -31 -88 c-63 -174 -141 -270 -294 -359 -52 -30 -210
-122 -350 -203 -140 -81 -379 -220 -530 -308 -151 -88 -300 -175 -330 -192
-64 -37 -496 -288 -1110 -645 -239 -139 -619 -360 -845 -490 -225 -130 -594
-345 -820 -477 -225 -132 -448 -261 -495 -288 -47 -26 -202 -116 -345 -200
-143 -83 -411 -239 -595 -345 -184 -107 -414 -240 -510 -295 -96 -56 -326
-190 -510 -297 -641 -372 -868 -503 -1310 -758 -692 -399 -1010 -583 -1473
-852 -446 -260 -517 -298 -555 -298 -49 0 -92 28 -112 73 -19 43 -20 96 -25
2288 -3 1234 -7 2929 -10 3766 l-5 1521 282 165 c156 90 519 301 808 467 289
167 813 470 1165 673 1131 653 1266 732 1475 852 291 167 1491 861 1895 1095
187 108 565 327 840 485 275 158 759 437 1075 620 316 183 769 444 1005 580
237 136 617 356 845 488 228 132 516 299 640 370 124 71 229 133 234 138 5 5
12 7 14 4 2 -2 1 -1139 -3 -2527z m-5935 2483 c0 -5 -7 -12 -16 -15 -14 -5
-15 -4 -4 9 14 17 20 19 20 6z m0 -81 c0 -5 -5 -10 -11 -10 -5 0 -7 5 -4 10 3
6 8 10 11 10 2 0 4 -4 4 -10z m51 -17 c11 -15 11 -16 -1 -6 -11 10 -17 10 -29
0 -14 -11 -14 -10 -2 6 7 9 15 17 16 17 1 0 9 -8 16 -17z m4879 -13 c45 -24
44 -128 -1 -194 -50 -74 -122 -96 -158 -50 -51 64 2 199 94 240 37 16 42 17
65 4z m-5140 -10 c0 -5 -8 -10 -17 -10 -15 0 -16 2 -3 10 19 12 20 12 20 0z
m-169 -93 c-6 -8 -8 -17 -4 -21 4 -4 0 -4 -10 0 -17 6 -17 7 0 20 23 17 28 18
14 1z m-1201 -692 c0 -2 -10 -9 -22 -15 -22 -11 -22 -10 -4 4 21 17 26 19 26
11z m-330 -190 c0 -2 -10 -9 -22 -15 -22 -11 -22 -10 -4 4 21 17 26 19 26 11z
m-57 -40 c-3 -9 -8 -14 -10 -11 -3 3 -2 9 2 15 9 16 15 13 8 -4z m-35 -25 c-7
-11 -14 -16 -16 -10 -2 6 -9 8 -15 4 -7 -3 -3 2 7 10 27 22 39 20 24 -4z m-18
-33 c0 -1 -16 -2 -36 -2 -30 -1 -33 1 -18 12 12 8 22 9 35 2 11 -5 19 -11 19
-12z m-32 -24 c-10 -2 -18 -9 -18 -14 0 -5 -4 -9 -8 -9 -22 0 -5 26 17 27 15
0 18 -1 9 -4z m78 -65 c-19 -27 -21 -19 -4 18 7 14 14 21 16 15 2 -6 -4 -21
-12 -33z m124 32 c0 -5 -5 -10 -11 -10 -5 0 -7 5 -4 10 3 6 8 10 11 10 2 0 4
-4 4 -10z m65 -110 c-3 -5 -11 -10 -16 -10 -6 0 -7 5 -4 10 3 6 11 10 16 10 6
0 7 -4 4 -10z m-1220 -370 c-3 -5 -12 -10 -18 -10 -7 0 -6 4 3 10 19 12 23 12
15 0z m-75 -44 c0 -2 -7 -7 -16 -10 -8 -3 -12 -2 -9 4 6 10 25 14 25 6z m545
-16 c3 -5 -1 -10 -10 -10 -9 0 -13 5 -10 10 3 6 8 10 10 10 2 0 7 -4 10 -10z
m-620 -50 c3 -6 -1 -7 -9 -4 -18 7 -21 14 -7 14 6 0 13 -4 16 -10z m-115 -44
c0 -3 -4 -8 -10 -11 -5 -3 -10 -1 -10 4 0 6 5 11 10 11 6 0 10 -2 10 -4z
m-320 -181 c0 -2 -10 -9 -22 -15 -22 -11 -22 -10 -4 4 21 17 26 19 26 11z
m565 -15 c-3 -5 -12 -10 -18 -10 -7 0 -6 4 3 10 19 12 23 12 15 0z m-690 -60
c-3 -5 -12 -10 -18 -10 -7 0 -6 4 3 10 19 12 23 12 15 0z m-56 -38 c-27 -19
-52 -25 -43 -10 3 5 8 7 11 4 3 -3 14 4 26 14 11 11 23 17 26 15 2 -3 -6 -13
-20 -23z m-64 -32 c-3 -5 -12 -10 -18 -10 -7 0 -6 4 3 10 19 12 23 12 15 0z
m-1850 -1070 c-3 -5 -12 -10 -18 -10 -7 0 -6 4 3 10 19 12 23 12 15 0z m-845
-504 c0 -2 -8 -10 -17 -17 -16 -13 -17 -12 -4 4 13 16 21 21 21 13z m-4 -76
c32 -28 202 -132 238 -146 11 -4 28 3 49 22 l31 29 -32 -38 c-18 -21 -46 -63
-63 -93 -17 -30 -35 -54 -40 -54 -4 0 -48 26 -96 57 -78 50 -152 88 -206 107
-17 5 -17 7 -1 38 28 55 66 108 77 108 5 0 25 -13 43 -30z m14773 -145 c17 -8
53 -15 81 -15 l51 0 -16 -30 c-33 -63 -12 -136 45 -160 33 -14 42 -53 14 -64
-20 -8 -202 -8 -231 0 -17 5 -23 18 -32 62 -6 32 -13 67 -17 80 -9 33 5 27 71
-27 33 -27 63 -47 67 -45 4 2 0 23 -8 47 -14 43 -57 95 -99 123 -23 15 -23 16
-8 60 l15 45 19 -30 c10 -16 32 -37 48 -46z m-121 -162 c6 -10 13 -37 17 -60
l7 -43 -46 0 -46 0 0 43 c0 49 7 63 35 70 11 2 21 5 22 6 1 0 6 -7 11 -16z
m642 -100 c84 -77 52 -289 -53 -353 -43 -27 -80 -25 -116 6 -17 14 -31 22 -31
17 0 -18 30 -51 57 -62 26 -11 28 -15 25 -61 -2 -27 1 -65 8 -84 15 -46 72
-96 109 -96 22 0 34 -8 49 -33 35 -61 120 -83 189 -51 37 18 39 17 71 -37 21
-34 21 -37 4 -51 -52 -47 -157 -79 -349 -109 -68 -10 -133 -21 -146 -25 -23
-5 -25 -2 -35 67 -15 99 -23 105 -104 85 -90 -23 -169 -21 -200 4 -32 25 -43
53 -67 168 -17 86 -17 94 -2 99 47 15 69 27 99 54 19 17 32 31 30 33 -22 14
-58 23 -63 16 -4 -6 1 -13 9 -16 9 -3 16 -10 16 -14 0 -14 -66 -50 -92 -50
-22 0 -27 7 -41 58 -9 31 -19 74 -23 95 -8 47 -24 58 -24 18 0 -37 -16 -40
-54 -10 -53 41 -52 93 1 142 19 16 20 16 31 -8 14 -30 58 -44 77 -24 20 22 35
78 35 130 l0 49 120 2 c66 0 126 1 133 2 8 1 14 -20 17 -62 6 -72 25 -95 75
-90 26 3 31 9 40 43 22 83 37 115 71 145 46 40 92 41 134 3z m-667 -67 c-32
-38 -43 -37 -43 5 0 27 3 29 36 29 l36 0 -29 -34z m57 -7 c0 -48 -21 -120 -38
-126 -17 -7 -42 22 -42 50 0 20 58 107 72 107 4 0 8 -14 8 -31z m-1383 -255
c-12 -12 -180 -104 -191 -104 -22 0 23 32 99 70 73 37 108 49 92 34z m91 -16
c13 -16 103 -293 227 -698 54 -173 123 -398 155 -500 73 -234 77 -258 51 -292
-17 -21 -527 -322 -582 -343 -9 -3 -31 8 -53 27 l-38 33 288 164 c159 90 295
169 303 176 11 11 -5 72 -104 387 -131 417 -295 947 -295 954 0 3 -38 -15 -84
-40 -45 -26 -87 -46 -93 -46 -5 0 -17 15 -26 34 l-16 35 112 60 c117 63 138
69 155 49z m-479 -83 c16 -8 38 -27 49 -42 l20 -28 36 18 c57 27 80 22 99 -18
9 -20 17 -48 17 -64 0 -24 -9 -33 -62 -62 -35 -19 -67 -36 -73 -38 -5 -2 -77
-39 -158 -83 -82 -44 -150 -78 -152 -76 -5 5 -23 143 -19 147 2 2 11 -2 20
-10 14 -11 15 -10 12 6 -2 13 9 27 35 44 35 23 37 27 37 75 0 60 25 116 60
133 32 16 45 16 79 -2z m-140 -24 c-13 -18 -23 -50 -26 -89 -3 -33 -11 -63
-17 -65 -9 -4 -10 13 -5 60 5 52 12 70 35 94 35 37 41 37 13 0z m666 -346
c229 -728 288 -921 292 -946 5 -25 -8 -33 -239 -164 -133 -76 -268 -152 -297
-170 l-55 -33 -60 55 c-57 52 -64 55 -103 50 -40 -4 -43 -3 -52 27 -5 17 -13
63 -16 101 -9 93 -19 125 -76 224 -27 46 -58 114 -70 150 -46 140 -78 174
-125 130 -13 -12 -26 -21 -28 -18 -2 3 -92 297 -136 450 -8 26 -3 29 83 78 86
47 92 49 99 31 4 -11 12 -20 18 -20 13 0 308 152 412 212 53 30 69 45 75 69 7
24 23 38 88 74 44 24 81 43 82 41 1 -1 50 -154 108 -341z m-760 155 c-10 -11
-21 -17 -24 -14 -3 3 3 12 13 20 28 20 32 17 11 -6z m-65 -54 c-17 -16 -230
-130 -230 -123 0 5 96 67 170 110 51 30 85 37 60 13z m35 -93 c-2 -6 -47 -35
-99 -63 -53 -29 -96 -56 -96 -62 0 -5 33 -121 74 -256 56 -184 75 -262 75
-307 1 -33 8 -85 16 -115 20 -74 19 -77 -11 -49 -39 36 -50 63 -131 314 -95
295 -123 391 -123 421 0 32 19 47 163 127 l122 67 7 -32 c4 -18 5 -38 3 -45z
m3053 -43 c12 -18 22 -39 22 -46 0 -44 -128 -125 -255 -160 -75 -21 -495 -33
-495 -15 0 14 82 67 124 80 17 6 90 20 161 31 72 12 157 28 189 36 71 19 164
64 190 93 24 27 35 23 64 -19z m95 9 c58 -26 80 -135 43 -211 -53 -110 -159
-179 -317 -205 -80 -14 -111 -15 -209 -5 -63 7 -149 21 -190 31 -115 30 -224
44 -274 37 -25 -4 -71 -20 -103 -36 -31 -16 -59 -28 -60 -26 -7 6 71 69 101
81 79 33 123 30 396 -30 243 -53 436 -21 561 92 52 47 79 101 79 156 0 46 -29
97 -55 97 -7 0 -15 7 -19 15 -6 18 13 20 47 4z m-9 -92 c24 -67 -45 -167 -148
-216 -135 -65 -299 -67 -545 -7 -79 19 -145 37 -148 39 -2 3 98 7 224 10 194
4 240 7 307 26 129 36 221 89 258 149 23 37 39 37 52 -1z m-3456 -30 c7 -29
50 -172 97 -317 47 -145 84 -268 82 -274 -9 -26 -42 57 -120 299 -91 279 -102
319 -92 335 12 20 21 9 33 -43z m3714 11 c156 -41 219 -112 288 -323 99 -305
226 -902 237 -1116 5 -100 3 -125 -15 -185 -41 -134 -140 -208 -281 -209 l-76
0 3 50 c4 53 15 147 56 445 35 255 56 495 55 614 -1 166 -15 154 -22 -19 -8
-184 -15 -255 -62 -605 -32 -239 -55 -452 -70 -650 -10 -130 12 -374 80 -890
95 -717 175 -1442 175 -1578 0 -46 -5 -61 -35 -102 -50 -68 -157 -166 -239
-218 -39 -24 -84 -53 -99 -64 -16 -11 -31 -17 -34 -15 -2 3 -22 83 -44 179
-58 261 -131 548 -139 548 -4 0 -10 -39 -14 -87 -13 -179 -77 -738 -84 -745
-15 -15 -227 -58 -342 -69 -325 -33 -617 25 -946 186 -72 35 -142 74 -157 85
l-27 21 0 157 c0 86 7 261 15 387 8 127 15 240 15 253 0 23 0 23 44 -7 51 -36
125 -66 181 -74 39 -6 39 -6 -10 12 -56 20 -161 73 -187 94 -24 19 -23 81 10
504 l27 342 43 -29 c88 -59 277 -120 373 -120 52 0 28 10 -85 36 -112 25 -206
59 -281 100 -53 30 -51 5 -30 304 7 118 19 346 24 505 6 160 13 334 16 388 l4
97 83 100 c47 57 101 112 125 126 59 34 160 120 174 147 11 21 11 21 -7 6 -64
-54 -148 -118 -152 -115 -2 3 14 31 35 63 55 80 89 141 107 188 18 46 16 43
-62 -82 -64 -104 -168 -236 -358 -458 -176 -204 -253 -284 -361 -374 -133
-112 -181 -136 -269 -136 -63 0 -80 5 -155 42 -46 23 -122 72 -169 109 -151
120 -612 596 -685 708 -14 21 -15 33 -5 80 24 119 108 238 193 277 71 32 98
26 164 -34 133 -123 540 -435 580 -445 9 -3 6 -16 -11 -45 -29 -49 -52 -130
-60 -206 -7 -73 2 -59 21 31 21 104 48 160 121 252 117 147 220 304 443 671
148 246 194 312 269 385 56 55 93 78 235 150 164 83 169 85 234 83 36 -1 127
-16 201 -33 174 -41 343 -50 452 -26 198 44 322 158 336 309 l5 59 36 -7 c20
-3 71 -15 113 -27z m-3627 -500 c9 -41 27 -87 41 -106 28 -36 192 -182 205
-182 19 0 18 42 -3 106 -28 87 -31 196 -6 220 26 26 42 6 79 -101 18 -52 47
-121 66 -152 62 -107 73 -139 82 -235 5 -51 12 -101 16 -110 5 -12 -4 -23 -32
-41 -52 -33 -97 -81 -125 -133 -12 -24 -28 -42 -34 -40 -21 8 -158 110 -240
177 -84 70 -108 106 -123 183 -9 48 1 60 19 26 6 -11 15 -20 20 -20 5 0 -5 30
-22 67 -20 41 -33 88 -36 122 l-4 56 37 -58 c21 -32 39 -57 41 -55 2 2 -6 33
-17 68 -41 130 -43 164 -15 225 14 30 27 55 30 55 2 0 12 -33 21 -72z m-10378
-135 l103 -58 0 -440 c0 -1684 22 -7039 30 -7080 5 -27 12 -58 16 -68 5 -15
-7 -12 -65 17 -86 44 -146 96 -160 139 -14 46 -46 7547 -31 7547 2 0 50 -26
107 -57z m15262 -3947 c71 -68 62 -216 -24 -392 -49 -102 -170 -287 -241 -371
-24 -28 -44 -54 -44 -57 0 -3 38 -6 85 -6 47 0 85 -4 85 -9 0 -13 -66 -37
-135 -50 -70 -13 -77 -19 -168 -141 -40 -52 -105 -126 -145 -165 -89 -84 -101
-103 -67 -100 45 5 46 -15 2 -119 -22 -55 -43 -94 -45 -87 -4 11 -6 10 -13 0
-7 -11 -9 -9 -9 6 0 12 -5 26 -12 33 -9 9 -9 12 3 12 12 0 12 2 -1 10 -9 5
-15 25 -15 49 0 45 1 45 -77 -22 -65 -56 -86 -94 -68 -126 6 -12 15 -21 21
-21 6 0 8 -4 4 -9 -3 -5 0 -13 6 -16 6 -4 -3 -16 -24 -31 -40 -26 -93 -102
-102 -145 -8 -37 -25 -48 -19 -12 23 129 121 469 152 526 45 83 175 182 340
257 39 18 72 37 72 41 0 12 4 12 -78 -15 -103 -35 -194 -81 -251 -126 -28 -22
-51 -37 -51 -32 0 4 34 76 75 160 41 84 80 170 86 192 l12 40 21 -19 c30 -28
75 -43 107 -36 36 8 75 55 89 105 10 37 12 39 43 34 18 -3 38 -8 45 -10 22 -7
71 25 87 56 25 49 19 85 -20 125 -20 19 -41 35 -48 35 -34 1 -36 16 -11 85 25
69 56 114 143 208 78 84 20 50 -66 -39 l-83 -86 -26 21 c-44 35 -108 26 -161
-21 -21 -20 -21 -20 -38 6 -16 24 -16 28 -1 51 26 40 161 149 228 185 92 49
133 60 225 57 75 -2 84 -4 112 -31z m-627 -233 c19 -21 47 -55 60 -76 l26 -38
22 37 c13 21 38 43 58 51 32 13 37 13 61 -5 34 -25 39 -77 12 -131 -28 -55
-27 -61 15 -61 45 0 104 -53 104 -94 0 -59 -83 -86 -163 -52 l-33 13 4 -33
c12 -101 -65 -160 -133 -101 -21 17 -28 37 -37 93 l-11 72 -40 6 c-89 14 -155
71 -143 121 9 36 43 49 91 36 22 -6 40 -9 41 -8 2 2 -3 21 -11 42 -21 60 -19
121 5 145 27 27 30 26 72 -17z m-105 -337 c59 -18 62 -21 68 -56 6 -33 0 -49
-44 -126 -28 -48 -61 -114 -73 -146 -26 -66 -38 -74 -38 -24 0 50 -26 177 -44
216 l-16 35 5 -65 c3 -36 8 -121 12 -190 l6 -125 -41 -120 c-48 -141 -89 -292
-107 -390 -11 -64 -13 -41 -14 246 -1 294 0 319 20 380 32 99 176 391 191 387
7 -2 41 -12 75 -22z m533 -493 c12 -15 24 -40 27 -55 l5 -28 35 30 c79 69 139
5 78 -84 -32 -47 -31 -52 5 -59 40 -8 70 -41 70 -76 0 -37 -20 -44 -73 -26
-23 8 -44 15 -47 15 -3 0 -3 -24 -2 -54 3 -47 1 -56 -19 -70 -13 -9 -31 -16
-40 -16 -27 0 -57 45 -70 106 -12 53 -13 55 -56 66 -53 13 -83 48 -83 96 l0
35 46 -7 c41 -5 45 -4 39 12 -3 9 -9 38 -12 63 -4 34 -1 49 12 62 25 25 60 21
85 -10z m535 -387 c39 -17 53 -52 35 -88 -7 -12 -45 -57 -85 -98 -126 -131
-135 -174 -62 -313 26 -48 47 -94 47 -102 0 -24 -41 -54 -84 -60 -23 -4 -97 1
-165 10 -140 19 -212 16 -241 -10 -47 -42 -8 -78 145 -134 132 -49 190 -87
211 -137 26 -62 -10 -135 -86 -174 -45 -24 -155 -14 -324 30 -171 43 -201 47
-241 28 -67 -30 -31 -94 84 -148 83 -40 101 -56 101 -91 0 -51 -87 -108 -218
-144 -81 -22 -274 -31 -369 -16 -127 20 -163 31 -163 50 0 46 151 313 237 418
113 140 305 175 593 107 l25 -6 -24 21 c-60 53 -284 73 -416 38 -32 -9 -60
-15 -62 -13 -5 5 173 200 233 255 101 93 210 126 394 119 73 -2 87 -1 74 9 -9
7 -37 15 -62 19 -48 7 -203 0 -237 -11 -43 -14 77 81 237 188 92 62 163 114
158 115 -26 9 -301 -160 -420 -258 -69 -57 -70 -56 -54 2 17 62 30 254 15 223
-5 -11 -21 -67 -34 -125 -40 -167 -61 -213 -117 -260 -26 -22 -101 -102 -166
-178 -65 -75 -122 -142 -128 -149 -8 -9 -12 12 -13 75 -1 48 -5 134 -9 192
-10 147 -22 89 -30 -145 -7 -203 4 -168 -126 -392 -63 -108 -66 -111 -72 -82
-10 49 -7 84 9 122 8 19 18 94 23 165 9 125 11 133 41 171 58 74 65 100 65
276 1 154 2 162 28 211 35 66 80 104 122 104 50 0 63 -17 69 -90 8 -110 58
-171 98 -121 17 21 24 38 84 205 21 60 40 91 74 127 78 81 132 79 186 -6 20
-30 45 -60 56 -66 35 -18 85 -4 188 54 157 89 290 118 376 83z m-9248 -176
c-35 -50 -155 -124 -947 -585 -206 -120 -443 -260 -526 -311 -192 -117 -251
-147 -377 -189 -135 -45 -264 -65 -424 -65 -112 0 -275 19 -290 34 -3 2 76 2
174 -1 152 -5 196 -2 302 16 199 34 369 98 506 191 116 79 597 359 840 490
243 130 649 364 705 405 54 40 55 41 37 15z m7890 -267 c-2 -16 -4 -3 -4 27 0
30 2 43 4 28 2 -16 2 -40 0 -55z m33 -176 c0 -40 -36 -137 -51 -137 -11 0 -11
68 -2 163 l6 69 23 -29 c15 -18 23 -42 24 -66z m-10955 -427 c3 -6 -1 -7 -9
-4 -18 7 -21 14 -7 14 6 0 13 -4 16 -10z m55 -36 c0 -2 -9 0 -20 6 -11 6 -20
13 -20 16 0 2 9 0 20 -6 11 -6 20 -13 20 -16z"/>
<path d="M12704 16171 c-662 -380 -769 -443 -776 -454 -14 -21 -4 -62 15 -65
10 -2 104 47 210 108 106 62 337 195 515 297 257 147 323 189 328 209 8 30 -1
54 -19 54 -8 0 -131 -67 -273 -149z"/>
<path d="M11206 15268 c-11 -16 -16 -46 -16 -103 0 -67 4 -90 26 -133 62 -126
201 -133 321 -18 54 53 65 83 38 106 -12 10 -22 6 -54 -23 -84 -76 -147 -87
-205 -37 -37 33 -59 98 -56 167 1 21 2 44 1 51 -2 20 -39 14 -55 -10z"/>
<path d="M9210 14158 c-113 -66 -338 -196 -500 -290 -162 -93 -305 -179 -317
-191 -28 -26 -29 -53 -3 -67 23 -12 30 -9 420 220 118 69 311 182 428 249 163
95 214 129 218 147 8 32 -1 54 -23 53 -10 0 -110 -55 -223 -121z"/>
<path d="M7955 13611 c-11 -5 -29 -18 -39 -30 -16 -18 -18 -27 -10 -49 6 -16
16 -25 25 -23 117 34 179 -20 179 -156 -1 -183 -129 -363 -259 -363 -54 0
-107 46 -123 106 -7 24 -15 44 -19 44 -6 0 -5 -29 1 -37 9 -11 2 -47 -9 -51
-8 -3 -11 0 -7 7 4 6 3 11 -2 11 -17 0 -23 32 -10 49 10 13 8 13 -7 -1 -17
-16 -17 -22 -7 -69 24 -103 75 -149 164 -149 99 0 232 103 295 230 91 181 82
389 -18 461 -35 24 -119 35 -154 20z"/>
<path d="M13989 13533 c-13 -16 -12 -17 4 -4 9 7 17 15 17 17 0 8 -8 3 -21
-13z"/>
<path d="M13932 13417 c-12 -13 -22 -30 -22 -38 0 -8 -58 -49 -131 -93 -98
-57 -138 -76 -155 -72 -24 6 -74 -11 -74 -26 0 -4 -54 -8 -121 -8 -106 0 -124
3 -146 20 -30 24 -52 25 -79 5 -28 -21 -256 -21 -274 0 -17 21 -63 19 -83 -3
-10 -10 -17 -32 -17 -48 0 -28 -75 -138 -279 -411 -14 -18 -33 -33 -42 -33
-10 0 -28 -13 -41 -29 -32 -39 -223 -103 -284 -94 -37 5 -44 2 -58 -19 -9 -14
-16 -38 -15 -54 2 -21 -24 -75 -91 -189 -206 -355 -203 -350 -232 -353 -15 -2
-33 -11 -40 -21 -11 -15 -33 -19 -129 -23 -102 -5 -118 -3 -138 13 -29 23 -74
24 -92 3 -12 -14 -30 -16 -132 -11 -84 4 -123 10 -135 20 -9 8 -27 18 -39 21
-22 7 -61 64 -126 186 -19 36 -69 124 -110 196 -68 117 -75 134 -70 170 4 29
1 43 -10 53 -24 19 -68 9 -90 -21 -17 -22 -18 -31 -8 -59 10 -29 6 -50 -35
-178 -108 -347 -100 -328 -147 -345 -36 -13 -37 -15 -9 -10 19 3 32 1 32 -5 0
-6 -34 -115 -75 -243 -41 -128 -75 -238 -75 -244 0 -7 -17 -30 -37 -52 -36
-38 -45 -41 -147 -62 -84 -17 -114 -19 -133 -11 -13 6 -32 11 -43 11 -23 0
-50 -36 -50 -68 0 -16 -35 -64 -108 -145 -59 -67 -123 -140 -142 -162 -21 -25
-43 -41 -59 -42 -26 -2 -61 -35 -61 -57 0 -16 -234 -96 -251 -85 -41 26 -89
-1 -98 -54 -5 -29 -32 -62 -144 -176 -103 -105 -144 -141 -163 -141 -23 0 -58
-26 -65 -49 -7 -20 -229 -82 -250 -71 -43 24 -78 9 -104 -44 -6 -11 -64 -54
-130 -93 -102 -62 -125 -72 -152 -67 -25 5 -37 1 -57 -20 -15 -14 -26 -37 -26
-53 -1 -22 -32 -63 -139 -181 -76 -84 -152 -162 -170 -173 -66 -40 -64 -109 4
-109 42 0 70 35 62 77 -4 23 13 47 137 182 107 117 151 159 177 166 23 7 39
20 49 41 22 47 242 174 288 167 27 -5 37 0 65 30 27 29 49 40 142 66 72 20
113 27 119 21 16 -16 62 -12 79 8 8 9 19 31 24 48 12 45 260 304 291 304 34 0
60 17 77 49 12 25 31 35 126 66 92 31 115 35 136 26 41 -19 99 31 91 78 -4 26
275 341 303 341 10 0 34 14 53 30 27 24 55 35 132 52 75 16 102 18 116 9 61
-38 132 25 98 89 -7 14 4 61 46 192 31 95 67 209 81 253 14 44 29 84 34 89 5
6 9 16 9 24 0 8 34 120 76 249 61 189 79 232 88 222 7 -8 74 -123 150 -257
108 -192 135 -247 130 -267 -8 -34 19 -75 50 -75 13 0 35 9 49 20 22 17 40 20
137 20 108 0 114 -1 137 -26 19 -21 29 -25 51 -19 15 4 35 13 44 22 12 10 49
16 126 20 102 5 113 4 138 -16 14 -11 35 -21 45 -21 29 0 59 36 59 72 0 29 57
134 263 485 23 38 41 55 68 66 26 10 38 22 41 38 3 21 18 29 117 62 101 33
117 36 146 25 48 -17 85 8 85 58 0 40 -6 30 168 272 79 110 131 172 142 172 9
0 29 9 43 20 22 17 40 20 139 20 102 0 114 -2 126 -20 7 -12 23 -20 41 -20 15
0 36 9 46 20 16 18 31 20 135 20 103 0 120 -2 140 -20 44 -38 110 -14 110 41
0 9 12 21 28 28 15 7 70 38 122 69 77 46 102 56 132 54 68 -6 108 76 56 112
-30 21 -41 20 -66 -7z"/>
<path d="M7912 13380 c-28 -17 -32 -25 -32 -62 0 -37 -4 -45 -30 -60 -25 -14
-30 -23 -30 -54 0 -30 3 -35 18 -29 48 20 52 19 52 -19 0 -40 12 -45 48 -20
16 11 22 25 22 55 0 35 4 42 35 60 31 18 35 26 35 61 0 34 -3 39 -17 33 -48
-20 -53 -18 -53 13 0 41 -10 45 -48 22z"/>
<path d="M13008 13373 c12 -2 32 -2 45 0 12 2 2 4 -23 4 -25 0 -35 -2 -22 -4z"/>
<path d="M11905 13050 c10 -11 20 -20 23 -20 3 0 -3 9 -13 20 -10 11 -20 20
-23 20 -3 0 3 -9 13 -20z"/>
<path d="M12359 12993 c-13 -16 -12 -17 4 -4 9 7 17 15 17 17 0 8 -8 3 -21
-13z"/>
<path d="M12324 12948 l-19 -23 23 19 c12 11 22 21 22 23 0 8 -8 2 -26 -19z"/>
<path d="M6725 12907 c-38 -38 -52 -91 -38 -140 7 -28 14 -32 45 -35 23 -2 47
4 63 14 25 16 27 16 55 -11 17 -17 35 -25 44 -22 26 10 18 34 -18 62 -31 24
-33 28 -28 74 6 66 -9 91 -54 91 -27 0 -44 -8 -69 -33z m83 -9 c21 -21 14 -74
-14 -107 -67 -80 -119 10 -53 92 22 29 48 34 67 15z"/>
<path d="M13584 12364 c-99 -47 -219 -185 -296 -339 -169 -335 -121 -726 95
-780 22 -6 27 -4 27 12 0 10 21 77 46 148 25 72 67 193 92 270 l46 140 4 270
c3 265 3 270 25 287 30 23 22 22 -39 -8z"/>
<path d="M13890 12345 c19 -19 36 -35 39 -35 3 0 -10 16 -29 35 -19 19 -36 35
-39 35 -3 0 10 -16 29 -35z"/>
<path d="M11233 12333 c9 -2 23 -2 30 0 6 3 -1 5 -18 5 -16 0 -22 -2 -12 -5z"/>
<path d="M10771 12034 c0 -11 3 -14 6 -6 3 7 2 16 -1 19 -3 4 -6 -2 -5 -13z"/>
<path d="M13991 12014 c0 -11 3 -14 6 -6 3 7 2 16 -1 19 -3 4 -6 -2 -5 -13z"/>
<path d="M6414 11981 c-35 -21 -57 -66 -52 -107 2 -25 8 -30 38 -34 29 -4 35
-9 35 -30 0 -19 -9 -29 -37 -43 -46 -22 -53 -53 -10 -42 38 9 70 42 82 83 12
46 -2 72 -40 72 -16 0 -32 5 -35 10 -12 20 8 52 41 66 19 8 34 21 34 29 0 20
-19 19 -56 -4z"/>
<path d="M6273 11902 l-42 -26 -3 -118 c-2 -65 1 -118 5 -118 19 0 97 53 97
66 0 18 -11 18 -36 -1 -29 -22 -34 -18 -34 24 0 33 4 40 30 51 19 8 30 20 30
32 0 18 -2 18 -22 4 -32 -23 -38 -20 -38 14 0 24 7 35 35 51 19 12 35 25 35
29 0 19 -17 16 -57 -8z"/>
<path d="M13971 11864 c0 -11 3 -14 6 -6 3 7 2 16 -1 19 -3 4 -6 -2 -5 -13z"/>
<path d="M6140 11826 c-30 -18 -57 -40 -58 -50 -3 -15 -1 -16 17 -6 26 13 33
0 30 -51 -2 -19 -2 -57 -1 -86 2 -42 5 -51 17 -47 12 5 15 27 15 109 0 101 1
104 28 123 18 14 24 24 17 31 -7 6 -29 -1 -65 -23z"/>
<path d="M13951 11784 c0 -11 3 -14 6 -6 3 7 2 16 -1 19 -3 4 -6 -2 -5 -13z"/>
<path d="M6033 11763 c-9 -3 -13 -30 -13 -86 l-1 -82 -29 63 c-16 34 -33 62
-37 62 -26 0 -33 -29 -33 -143 0 -105 2 -118 15 -107 11 9 15 34 16 94 l0 81
32 -62 c32 -64 43 -73 65 -51 13 13 17 224 5 231 -5 2 -14 2 -20 0z"/>
<path d="M12428 11693 c7 -3 16 -2 19 1 4 3 -2 6 -13 5 -11 0 -14 -3 -6 -6z"/>
<path d="M5825 11647 l-40 -23 -3 -117 c-1 -64 0 -117 4 -117 19 0 94 53 94
65 0 19 -10 18 -34 0 -29 -22 -36 -19 -36 18 0 26 6 36 30 50 17 10 30 25 30
33 0 18 -5 18 -35 -2 -25 -16 -25 -16 -25 18 0 30 5 38 35 54 19 10 35 24 35
31 0 18 -9 16 -55 -10z"/>
<path d="M12281 11624 c-144 -108 -258 -286 -323 -504 -18 -60 -39 -303 -25
-290 3 3 7 38 8 78 l3 73 203 65 202 66 3 279 c2 153 0 279 -4 279 -3 0 -33
-21 -67 -46z"/>
<path d="M6394 11596 c-53 -53 -45 -126 13 -126 50 0 34 -66 -18 -77 -20 -4
-29 -11 -29 -24 0 -23 1 -23 45 -5 40 17 67 64 63 109 -3 28 -7 33 -38 37 -23
3 -36 11 -38 23 -5 23 25 57 48 57 10 0 21 7 24 16 9 23 8 24 -15 24 -12 0
-36 -15 -55 -34z"/>
<path d="M5707 11583 c-4 -3 -7 -60 -7 -125 0 -91 3 -119 13 -116 8 3 13 40
15 126 2 111 -2 135 -21 115z"/>
<path d="M6268 11530 l-48 -30 0 -116 c0 -129 -3 -125 69 -79 23 14 41 32 41
41 0 13 -6 12 -35 -6 l-35 -22 0 39 c0 32 5 41 30 55 17 9 30 24 30 33 0 14
-3 14 -30 0 l-30 -16 0 35 c0 28 5 36 30 46 18 8 30 20 30 31 0 23 4 24 -52
-11z"/>
<path d="M5595 11518 c-50 -39 -82 -153 -59 -212 10 -27 41 -38 67 -25 37 19
66 50 60 66 -4 11 -10 10 -28 -7 -31 -29 -58 -22 -65 15 -13 68 20 145 61 145
10 0 23 9 29 20 9 17 8 20 -13 20 -14 0 -37 -10 -52 -22z"/>
<path d="M6132 11456 c-64 -40 -66 -42 -57 -55 4 -8 12 -8 26 -1 18 10 19 7
19 -83 0 -98 4 -114 27 -96 9 8 13 40 13 113 0 90 2 103 20 114 19 12 28 43
13 41 -5 0 -32 -15 -61 -33z"/>
<path d="M5427 11428 c-19 -15 -75 -263 -63 -276 10 -9 36 27 36 50 0 9 13 24
30 33 36 19 40 19 40 0 0 -17 26 -20 35 -4 7 11 -46 209 -56 209 -3 0 -13 -6
-22 -12z m28 -149 c-7 -11 -45 -18 -45 -9 0 5 5 33 12 62 l11 53 13 -49 c7
-28 11 -53 9 -57z"/>
<path d="M13710 11375 c-24 -25 -42 -45 -39 -45 3 0 25 20 49 45 24 25 42 45
39 45 -3 0 -25 -20 -49 -45z"/>
<path d="M6027 11393 c-4 -3 -7 -40 -7 -82 l-1 -76 -30 58 c-21 41 -35 57 -47
55 -15 -3 -17 -20 -20 -125 -2 -107 -1 -122 13 -117 12 5 15 24 15 88 l1 81
30 -57 c30 -59 47 -70 69 -43 9 11 11 42 5 120 -6 98 -11 115 -28 98z"/>
<path d="M12743 11320 c0 -36 2 -50 4 -32 2 17 2 47 0 65 -2 17 -4 3 -4 -33z"/>
<path d="M5270 11341 l-35 -18 -3 -117 c-2 -108 -1 -117 15 -114 14 2 19 16
23 54 4 42 11 56 37 78 56 47 69 136 20 136 -12 0 -38 -8 -57 -19z m50 -45 c0
-12 -11 -33 -25 -46 l-25 -23 0 41 c0 28 5 44 17 51 23 12 33 5 33 -23z"/>
<path d="M7882 11310 c0 -14 2 -19 5 -12 2 6 2 18 0 25 -3 6 -5 1 -5 -13z"/>
<path d="M13627 11311 c-41 -26 -46 -36 -10 -17 17 9 35 20 38 26 8 13 6 12
-28 -9z"/>
<path d="M5817 11280 l-47 -30 0 -99 c0 -135 0 -136 61 -103 30 16 49 34 49
45 0 16 -2 16 -30 2 -39 -20 -40 -20 -40 18 0 26 6 36 30 50 17 10 30 25 30
33 0 18 -5 18 -35 -2 -25 -16 -25 -16 -25 18 0 29 5 37 35 51 19 9 35 23 35
32 0 21 -10 19 -63 -15z"/>
<path d="M7870 11271 c0 -6 -10 -16 -22 -21 -16 -6 -18 -9 -7 -9 19 -1 45 26
35 36 -3 3 -6 1 -6 -6z"/>
<path d="M12732 11220 c0 -19 2 -27 5 -17 2 9 2 25 0 35 -3 9 -5 1 -5 -18z"/>
<path d="M13675 11155 c-77 -47 -140 -90 -141 -97 -3 -33 -5 -38 -16 -35 -7 1
-12 -6 -12 -15 2 -20 -38 -37 -44 -19 -3 8 -8 6 -16 -5 -11 -15 -13 -15 -19
-1 -4 12 8 21 49 38 30 13 54 26 54 31 0 14 -14 9 -95 -40 -66 -38 -81 -52
-83 -74 -6 -51 0 -48 380 179 100 60 128 88 113 113 -11 18 -28 10 -170 -75z"/>
<path d="M5710 11220 c-12 -7 -14 -30 -11 -122 1 -62 5 -115 7 -117 2 -3 9 0
14 5 7 7 10 58 8 127 -3 100 -5 115 -18 107z"/>
<path d="M4860 11185 c-68 -46 -81 -60 -87 -97 -6 -43 3 -88 18 -88 6 0 37 19
70 41 40 28 65 40 79 36 45 -12 52 71 10 113 -25 25 -46 24 -90 -5z"/>
<path d="M5595 11158 c-38 -30 -65 -93 -65 -154 0 -94 54 -121 116 -59 33 33
21 51 -16 24 -49 -36 -79 11 -60 92 12 50 32 75 65 81 11 2 21 11 23 21 5 24
-29 22 -63 -5z"/>
<path d="M7811 11114 c-34 -43 -22 -84 24 -84 32 0 55 31 55 73 0 34 -2 37
-29 37 -20 0 -36 -9 -50 -26z"/>
<path d="M5443 11074 l-43 -25 0 -120 c0 -65 2 -119 4 -119 16 0 96 55 96 66
0 18 -11 18 -36 -1 -28 -22 -34 -18 -34 19 0 28 6 38 30 53 31 18 43 50 15 39
-8 -3 -22 -9 -30 -12 -12 -5 -15 2 -15 28 0 29 5 37 35 51 19 9 35 23 35 32 0
20 -8 19 -57 -11z"/>
<path d="M11042 11078 c-19 -19 -14 -30 8 -18 29 16 26 -7 -5 -36 -14 -13 -25
-34 -25 -49 0 -28 7 -30 45 -13 23 10 25 17 25 70 0 49 -3 58 -18 58 -10 0
-23 -5 -30 -12z m24 -93 c-7 -18 -26 -20 -26 -2 0 18 24 41 28 27 2 -6 1 -17
-2 -25z"/>
<path d="M4875 11025 c-91 -51 -102 -69 -96 -167 1 -27 2 -27 84 35 l82 63 3
52 c2 29 -1 52 -5 52 -4 0 -35 -16 -68 -35z"/>
<path d="M8763 10990 c-33 -74 -36 -94 -5 -34 12 23 22 33 26 25 4 -6 2 -11
-3 -11 -6 0 -11 -10 -11 -22 1 -21 2 -21 16 6 13 23 13 30 3 37 -10 6 -10 13
-1 35 7 14 11 28 9 30 -2 2 -17 -28 -34 -66z"/>
<path d="M10950 11023 c-24 -31 -22 -44 8 -58 27 -12 28 -21 2 -35 -21 -11
-27 -30 -10 -30 17 0 50 39 50 60 0 11 -6 20 -14 20 -26 0 -30 23 -8 41 26 20
28 29 8 29 -8 0 -24 -12 -36 -27z"/>
<path d="M5282 10985 l-52 -24 0 -116 c0 -108 1 -115 20 -115 18 0 20 7 20 54
0 67 14 79 37 32 17 -37 21 -40 47 -30 14 5 13 11 -5 46 -19 37 -19 42 -5 73
19 40 21 79 3 93 -10 8 -27 5 -65 -13z m38 -47 c0 -22 -26 -58 -42 -58 -10 0
-11 64 -1 73 15 16 43 6 43 -15z"/>
<path d="M10864 10982 c-33 -22 -45 -100 -20 -121 35 -29 81 40 69 103 -5 26
-26 34 -49 18z m31 -31 c7 -25 -12 -74 -28 -69 -16 6 -21 42 -7 67 13 26 27
27 35 2z"/>
<path d="M10776 10931 c-21 -24 -36 -74 -29 -101 4 -16 12 -20 32 -18 15 2 27
10 29 20 2 12 -2 15 -17 11 -18 -5 -21 -1 -21 26 0 20 7 35 20 43 20 13 28 38
12 38 -5 0 -16 -8 -26 -19z"/>
<path d="M12615 10870 c-14 -27 -23 -50 -20 -50 2 0 16 23 30 50 14 28 23 50
20 50 -2 0 -16 -22 -30 -50z"/>
<path d="M10587 10893 c-9 -8 -9 -110 -1 -152 12 -61 24 -30 24 64 0 87 -5
107 -23 88z"/>
<path d="M10694 10833 c-11 -71 -34 -84 -34 -19 0 25 -4 46 -10 46 -13 0 -13
-107 0 -115 6 -3 24 3 40 15 27 19 30 27 30 76 0 71 -14 69 -26 -3z"/>
<path d="M10520 10847 c-66 -33 -83 -187 -20 -187 34 0 60 36 60 81 0 33 -3
40 -17 37 -10 -2 -19 -12 -21 -22 -3 -11 0 -16 7 -12 12 8 15 -13 5 -38 -9
-23 -31 -20 -45 5 -17 32 5 97 37 111 13 6 24 17 24 25 0 16 1 16 -30 0z"/>
<path d="M10370 10684 c0 -61 4 -93 10 -89 6 3 10 46 10 96 0 53 -4 89 -10 89
-6 0 -10 -39 -10 -96z"/>
<path d="M6149 10721 c-38 -38 -47 -68 -33 -105 3 -9 16 -16 28 -16 58 -1 61
-45 4 -73 -40 -20 -51 -47 -19 -47 38 0 101 74 101 119 0 18 -31 41 -56 41
-19 0 -24 5 -24 25 0 19 10 31 35 46 19 12 35 27 35 35 0 26 -32 14 -71 -25z"/>
<path d="M12529 10733 c-13 -16 -12 -17 4 -4 16 13 21 21 13 21 -2 0 -10 -8
-17 -17z"/>
<path d="M4918 10679 c-28 -14 -38 -26 -38 -44 0 -28 12 -32 34 -10 9 9 17 11
21 5 3 -5 1 -10 -4 -10 -6 0 -11 -9 -11 -20 0 -22 20 -26 51 -10 20 11 28 70
8 70 -6 0 -8 9 -4 20 8 26 -8 25 -57 -1z"/>
<path d="M10288 10663 c-22 -26 -30 -59 -23 -93 8 -35 33 -40 60 -10 19 21 13
42 -7 22 -16 -16 -28 -15 -28 2 0 8 9 18 20 21 41 13 49 75 10 75 -9 0 -24 -8
-32 -17z m28 -31 c-8 -9 -19 -13 -22 -9 -10 9 16 38 28 31 6 -4 4 -13 -6 -22z"/>
<path d="M4820 10658 c-13 -5 -28 -14 -32 -21 -9 -14 -11 -91 -2 -100 23 -22
77 66 66 107 -6 20 -10 22 -32 14z"/>
<path d="M5998 10643 c-14 -16 -58 -212 -58 -257 0 -28 26 -3 33 32 8 38 77
71 77 37 0 -17 9 -19 28 -7 10 7 7 30 -15 110 -16 56 -33 102 -39 102 -6 0
-18 -8 -26 -17z m27 -95 c6 -34 4 -44 -11 -55 -29 -21 -31 -16 -21 42 6 30 14
55 18 55 4 0 10 -19 14 -42z"/>
<path d="M10226 10615 c-4 -16 -11 -41 -16 -55 -7 -24 -8 -23 -15 13 -7 37
-19 48 -28 25 -7 -21 23 -110 36 -105 15 4 38 93 34 127 -3 24 -3 24 -11 -5z"/>
<path d="M12395 10609 c-52 -40 -57 -46 -17 -23 29 16 73 55 61 53 -2 0 -22
-14 -44 -30z"/>
<path d="M10120 10615 c0 -8 5 -15 10 -15 6 0 10 7 10 15 0 8 -4 15 -10 15 -5
0 -10 -7 -10 -15z"/>
<path d="M12025 10590 c10 -11 20 -20 23 -20 3 0 -3 9 -13 20 -10 11 -20 20
-23 20 -3 0 3 -9 13 -20z"/>
<path d="M5863 10569 c-56 -32 -70 -55 -28 -45 l25 6 0 -101 c0 -76 3 -100 13
-97 8 3 13 37 15 110 3 100 4 107 27 122 27 18 33 36 13 36 -7 0 -37 -14 -65
-31z"/>
<path d="M10068 10538 l-3 -63 -22 47 c-16 35 -26 46 -37 42 -13 -5 -16 -24
-16 -95 0 -101 17 -122 22 -26 l4 62 19 -43 c32 -69 49 -53 53 51 2 53 -1 87
-7 87 -6 0 -11 -28 -13 -62z"/>
<path d="M10120 10515 c0 -37 4 -65 10 -65 6 0 10 28 10 65 0 37 -4 65 -10 65
-6 0 -10 -28 -10 -65z"/>
<path d="M10513 10547 c-43 -25 -72 -62 -59 -74 2 -2 20 6 40 18 20 12 40 19
43 15 4 -3 -10 -65 -31 -137 -20 -72 -35 -133 -32 -136 2 -3 13 4 23 14 16 16
93 281 93 321 0 18 -20 13 -77 -21z"/>
<path d="M12320 10560 c-9 -6 -10 -10 -3 -10 6 0 15 5 18 10 8 12 4 12 -15 0z"/>
<path d="M5713 10487 l-43 -21 0 -123 c0 -121 1 -123 20 -113 16 9 20 21 20
65 0 29 4 56 9 59 4 3 16 -12 26 -34 19 -43 22 -45 44 -31 13 8 12 15 -4 51
-17 38 -17 43 -2 76 20 41 21 66 5 82 -16 16 -25 15 -75 -11z m45 -45 c2 -12
-7 -31 -20 -44 l-23 -23 -3 39 c-2 24 2 42 10 47 19 12 33 5 36 -19z"/>
<path d="M12340 10385 c-118 -69 -223 -134 -234 -144 -20 -21 -16 -51 8 -51
19 0 448 248 464 268 18 23 15 52 -5 52 -10 0 -115 -57 -233 -125z"/>
<path d="M10340 10457 c-29 -15 -76 -80 -61 -85 6 -2 21 9 34 24 16 18 30 25
40 21 24 -9 21 -41 -8 -75 -28 -34 -33 -54 -10 -46 25 10 47 -16 40 -45 -10
-41 -34 -61 -69 -58 -23 1 -31 -3 -34 -17 -5 -23 16 -38 43 -30 35 11 85 67
96 108 9 33 8 43 -8 65 -18 24 -18 29 -5 64 12 29 12 43 4 62 -13 28 -26 30
-62 12z"/>
<path d="M5578 10412 l-48 -27 0 -117 c0 -65 2 -118 5 -118 16 0 105 57 105
68 0 16 -16 15 -45 -4 l-25 -16 0 39 c0 32 5 42 30 56 46 27 36 52 -11 27 -14
-8 -19 -7 -20 2 0 7 -2 21 -4 30 -2 11 9 25 31 39 19 11 34 27 34 35 0 17 4
18 -52 -14z"/>
<path d="M6207 10389 c-34 -26 -55 -92 -38 -113 7 -8 25 -16 39 -18 50 -6 38
-78 -13 -78 -26 0 -42 -28 -21 -36 19 -7 71 21 90 48 19 27 21 79 4 96 -7 7
-25 12 -40 12 -23 0 -28 4 -28 23 0 27 17 47 42 47 9 0 22 9 28 20 9 17 8 20
-13 20 -14 0 -36 -9 -50 -21z"/>
<path d="M4825 10297 c-46 -46 -54 -102 -23 -165 26 -52 53 -64 92 -39 26 18
66 114 66 161 0 80 -74 104 -135 43z"/>
<path d="M5413 10323 c-14 -5 -19 -243 -5 -243 20 1 87 48 90 63 4 17 2 17
-27 2 l-31 -16 0 101 c0 55 -3 100 -7 99 -5 0 -14 -3 -20 -6z"/>
<path d="M6052 10308 c-11 -15 -64 -260 -57 -266 9 -9 35 21 35 38 0 18 43 60
61 60 4 0 11 -9 14 -20 5 -16 10 -18 25 -10 17 9 18 13 5 53 -7 23 -21 68 -30
100 -15 56 -32 70 -53 45z m33 -100 c6 -31 4 -38 -15 -48 -12 -6 -23 -10 -25
-8 -2 2 2 30 7 62 11 62 21 61 33 -6z"/>
<path d="M10078 10307 c-24 -25 -78 -162 -85 -216 -10 -82 22 -110 87 -76 58
30 92 151 54 189 -18 19 -20 19 -46 5 -29 -16 -31 -7 -8 46 23 54 22 76 -2 52z
m32 -179 c0 -50 -41 -98 -66 -77 -22 18 -12 88 16 111 31 25 50 13 50 -34z"/>
<path d="M5288 10258 c-19 -15 -76 -263 -64 -276 10 -9 36 27 36 50 0 9 13 24
30 33 37 19 40 19 40 -5 0 -24 13 -26 30 -5 9 11 6 33 -15 107 -15 51 -30 96
-34 101 -4 4 -14 1 -23 -5z m25 -115 c5 -26 2 -35 -14 -44 -11 -6 -23 -9 -25
-6 -2 2 1 30 8 62 12 60 18 58 31 -12z"/>
<path d="M10908 10253 c12 -2 30 -2 40 0 9 3 -1 5 -23 4 -22 0 -30 -2 -17 -4z"/>
<path d="M11099 10243 c-13 -16 -12 -17 4 -4 16 13 21 21 13 21 -2 0 -10 -8
-17 -17z"/>
<path d="M5914 10231 c-54 -33 -84 -126 -65 -199 14 -51 39 -61 85 -33 32 20
52 48 42 58 -2 3 -19 -6 -36 -19 -31 -23 -32 -23 -46 -4 -34 47 -6 160 43 172
27 7 43 20 43 37 0 13 -35 7 -66 -12z"/>
<path d="M10968 10223 c12 -2 32 -2 45 0 12 2 2 4 -23 4 -25 0 -35 -2 -22 -4z"/>
<path d="M11048 10223 c6 -2 18 -2 25 0 6 3 1 5 -13 5 -14 0 -19 -2 -12 -5z"/>
<path d="M5783 10163 c-15 -5 -19 -253 -5 -253 25 0 32 30 32 142 0 65 -3 118
-7 117 -5 0 -14 -3 -20 -6z"/>
<path d="M10202 10147 c-6 -7 -14 -36 -18 -65 -6 -45 -4 -52 9 -46 9 3 18 19
21 35 3 16 9 43 12 59 6 31 -6 39 -24 17z"/>
<path d="M5593 10119 c-5 -8 -16 -24 -22 -36 -16 -32 4 -30 25 2 18 27 16 57
-3 34z"/>
<path d="M5673 10099 c-29 -17 -53 -37 -53 -45 0 -11 4 -12 19 -4 11 5 22 10
25 10 3 0 6 -47 6 -105 0 -89 2 -104 15 -99 12 5 15 27 15 114 0 104 1 108 25
124 27 18 33 36 13 36 -7 0 -37 -14 -65 -31z"/>
<path d="M4867 10056 c-22 -8 -27 -16 -25 -36 4 -35 39 -33 56 3 17 35 6 47
-31 33z"/>
<path d="M5573 10043 c-10 -3 -13 -38 -13 -125 0 -108 2 -119 18 -116 15 3 17
18 20 126 1 67 -1 122 -5 121 -4 0 -14 -3 -20 -6z"/>
<path d="M5433 9973 l-33 -17 0 -124 c0 -94 3 -123 13 -120 7 3 14 29 17 63 3
32 10 60 16 62 6 2 19 -15 29 -37 20 -43 26 -47 44 -26 10 11 8 23 -8 54 -18
35 -18 41 -5 61 9 12 14 37 12 59 -3 31 -7 37 -28 39 -14 1 -40 -5 -57 -14z
m53 -38 c8 -19 -22 -65 -41 -65 -18 0 -20 51 -3 68 16 16 37 15 44 -3z"/>
<path d="M6944 9936 c-53 -53 -45 -126 13 -126 17 0 23 -6 23 -23 0 -27 -17
-47 -41 -47 -23 0 -45 -28 -32 -41 8 -8 20 -6 41 5 90 46 99 156 13 156 -42 0
-22 48 32 75 29 14 33 35 7 35 -12 0 -37 -15 -56 -34z"/>
<path d="M5302 9900 c-19 -12 -41 -38 -52 -63 -33 -71 -22 -180 19 -190 35 -8
115 53 95 73 -7 7 -17 4 -29 -10 -20 -22 -50 -26 -61 -8 -13 21 -7 103 10 137
11 21 26 34 46 38 21 4 30 11 30 24 0 24 -17 24 -58 -1z"/>
<path d="M7814 9874 c-18 -14 -18 -14 6 -3 31 14 36 19 24 19 -6 0 -19 -7 -30
-16z"/>
<path d="M6784 9855 c-61 -48 -87 -182 -44 -225 25 -25 27 -25 66 -1 59 36 89
145 61 214 -19 44 -39 47 -83 12z m50 -41 c26 -69 -24 -190 -63 -151 -16 16
-14 103 4 137 17 32 49 40 59 14z"/>
<path d="M4894 9860 c-11 -5 -40 -32 -62 -60 -42 -53 -53 -95 -31 -117 8 -8 7
-24 -5 -59 -19 -55 -21 -114 -5 -114 7 0 38 10 70 21 56 21 79 45 64 69 -4 6
7 38 24 72 33 65 37 88 21 119 -8 14 -15 16 -28 10 -9 -5 -25 -12 -34 -15 -10
-3 -18 -10 -18 -16 0 -14 33 -13 49 3 19 17 5 -55 -19 -103 -22 -43 -65 -84
-78 -76 -6 3 -14 36 -17 71 -7 60 -5 69 19 105 22 34 32 40 61 40 24 0 37 6
45 20 9 16 7 22 -7 27 -10 3 -20 7 -23 8 -3 2 -14 -1 -26 -5z"/>
<path d="M8897 9842 c-19 -21 -23 -42 -5 -24 7 7 16 12 20 12 15 0 8 -19 -17
-44 -40 -40 -27 -99 14 -62 10 9 23 16 29 16 10 0 11 42 3 113 -2 13 -28 7
-44 -11z m23 -77 c0 -16 -6 -25 -15 -25 -18 0 -18 5 -5 31 14 26 20 24 20 -6z"/>
<path d="M7791 9830 c0 -15 4 -31 11 -38 19 -19 66 -15 78 7 15 28 12 35 -6
16 -24 -24 -68 -16 -75 15 l-7 25 -1 -25z"/>
<path d="M11042 9834 c-28 -20 -29 -39 -1 -24 32 18 35 3 6 -28 -46 -47 -31
-100 18 -65 22 16 25 24 22 72 -2 60 -11 69 -45 45z m28 -78 c0 -16 -18 -31
-27 -22 -8 8 5 36 17 36 5 0 10 -6 10 -14z"/>
<path d="M6638 9776 c-60 -32 -79 -62 -33 -50 l25 6 0 -102 c0 -90 2 -101 15
-90 11 9 15 35 15 108 0 84 3 99 21 118 36 38 17 42 -43 10z"/>
<path d="M8720 9789 c0 -11 5 -17 10 -14 6 3 10 13 10 21 0 8 -4 14 -10 14 -5
0 -10 -9 -10 -21z"/>
<path d="M10960 9790 c-11 -11 -20 -29 -20 -41 0 -12 8 -23 20 -26 11 -3 20
-9 20 -14 0 -5 -9 -14 -20 -21 -23 -15 -26 -28 -7 -28 18 0 47 32 47 53 0 9
-10 23 -22 32 l-23 16 23 19 c12 10 22 21 22 24 0 13 -21 5 -40 -14z"/>
<path d="M8793 9783 c-19 -13 -23 -25 -23 -74 0 -33 4 -59 10 -59 6 0 10 21
10 48 0 53 12 78 30 67 8 -5 10 -22 7 -47 -4 -27 -2 -38 6 -35 7 2 12 26 12
58 0 60 -13 70 -52 42z"/>
<path d="M8610 9656 c0 -90 1 -94 20 -89 32 8 60 52 60 92 0 45 -16 64 -42 50
-15 -8 -18 -6 -18 16 0 14 -4 25 -10 25 -6 0 -10 -38 -10 -94z m60 -5 c0 -26
-16 -51 -32 -51 -12 0 -9 65 4 78 16 16 28 5 28 -27z"/>
<path d="M8715 9695 c-7 -55 -1 -80 16 -70 12 8 12 125 0 125 -5 0 -12 -25
-16 -55z"/>
<path d="M10851 9724 c-21 -26 -27 -67 -15 -98 10 -27 43 -18 64 17 46 75 3
147 -49 81z m44 -13 c7 -22 -10 -71 -25 -71 -18 0 -23 29 -10 60 14 34 26 38
35 11z"/>
<path d="M6541 9721 c-10 -7 -13 -30 -12 -90 1 -45 0 -81 -3 -81 -3 0 -17 27
-32 60 -27 61 -31 64 -58 54 -13 -5 -16 -26 -16 -125 0 -100 2 -117 15 -113
11 4 15 28 17 92 l3 87 32 -68 c30 -62 34 -67 53 -57 18 10 20 20 20 130 0 66
-1 120 -2 120 -2 0 -9 -4 -17 -9z"/>
<path d="M10764 9675 c-18 -28 -21 -92 -5 -108 15 -15 45 3 50 29 3 15 1 16
-11 6 -19 -15 -28 -6 -28 29 0 18 7 32 20 39 23 13 26 30 5 30 -8 0 -22 -11
-31 -25z"/>
<path d="M8446 9569 c-7 -94 -5 -106 13 -94 13 7 15 185 2 185 -4 0 -11 -41
-15 -91z"/>
<path d="M10590 9565 c0 -57 4 -95 10 -95 6 0 10 38 10 95 0 57 -4 95 -10 95
-6 0 -10 -38 -10 -95z"/>
<path d="M8528 9640 c-22 -13 -42 -75 -34 -106 16 -61 89 0 84 70 -3 43 -19
54 -50 36z m32 -41 c0 -25 -17 -59 -30 -59 -11 0 -14 63 -3 73 14 14 33 6 33
-14z"/>
<path d="M10700 9603 c0 -27 -4 -54 -9 -62 -15 -24 -31 -1 -31 45 0 28 -4 43
-10 39 -5 -3 -10 -31 -10 -61 0 -63 14 -75 54 -49 23 15 26 24 26 76 0 33 -4
59 -10 59 -5 0 -10 -21 -10 -47z"/>
<path d="M6323 9602 l-43 -27 0 -118 0 -119 53 30 c28 16 54 37 55 46 3 16 2
16 -27 2 -40 -21 -41 -21 -41 17 0 26 6 36 30 50 46 27 36 52 -11 27 -17 -10
-19 -7 -19 24 0 29 5 38 30 51 17 9 30 22 30 30 0 20 -7 18 -57 -13z"/>
<path d="M10501 9582 c-33 -33 -49 -92 -35 -131 11 -32 37 -38 69 -17 20 13
25 25 25 61 0 47 -9 56 -30 30 -9 -11 -9 -15 -1 -15 8 0 11 -11 9 -27 -4 -37
-47 -47 -49 -11 -3 64 8 97 36 104 26 6 32 18 15 29 -6 4 -23 -7 -39 -23z"/>
<path d="M8373 9550 c-29 -12 -43 -40 -43 -90 0 -45 19 -61 46 -39 14 12 16
11 13 -6 -2 -11 -14 -24 -26 -30 -25 -11 -37 -31 -23 -40 5 -3 22 7 39 22 26
25 30 36 35 111 7 87 5 90 -41 72z m15 -62 c-2 -30 -8 -43 -18 -43 -19 0 -25
37 -10 64 18 35 31 24 28 -21z"/>
<path d="M6213 9543 c-10 -3 -13 -38 -13 -125 0 -108 2 -119 18 -116 15 3 17
18 20 126 1 67 -1 122 -5 121 -4 0 -14 -3 -20 -6z"/>
<path d="M10377 9533 c-10 -10 -8 -183 2 -183 16 0 22 51 15 119 -7 72 -7 74
-17 64z"/>
<path d="M6129 9491 c-22 -17 -30 -37 -45 -111 -10 -49 -21 -90 -25 -90 -4 0
-9 14 -13 32 -3 18 -11 49 -16 70 -10 35 -12 37 -35 26 -25 -11 -25 -13 -25
-130 0 -91 3 -119 13 -116 8 3 14 35 17 92 l5 88 19 -66 c10 -37 22 -69 26
-71 15 -10 31 24 48 106 l17 84 3 -77 c2 -43 7 -78 11 -78 25 0 32 33 29 145
l-3 117 -26 -21z"/>
<path d="M8250 9480 c-38 -38 -39 -120 -1 -120 41 0 79 92 51 125 -16 20 -26
19 -50 -5z m37 -26 c7 -18 -12 -64 -27 -64 -11 0 -14 63 -3 73 11 12 23 8 30
-9z"/>
<path d="M8154 9425 c-4 -8 -13 -15 -21 -15 -8 0 -28 -9 -44 -21 -26 -18 -29
-26 -29 -76 0 -67 21 -69 27 -2 5 54 9 69 23 69 5 0 10 -20 10 -45 0 -25 5
-45 10 -45 6 0 10 22 10 49 0 31 5 53 15 61 13 11 15 6 15 -35 0 -33 4 -45 13
-43 26 9 19 118 -9 118 -8 0 -17 -7 -20 -15z"/>
<path d="M10290 9422 c-27 -22 -40 -102 -18 -119 18 -15 61 5 66 31 4 17 2 17
-22 1 -24 -16 -26 -16 -26 -1 0 9 11 21 24 26 29 11 42 45 26 65 -16 19 -23
19 -50 -3z m30 -21 c0 -5 -7 -14 -15 -21 -12 -10 -15 -10 -15 2 0 8 3 18 7 21
9 10 23 9 23 -2z"/>
<path d="M11515 9341 c-79 -64 -87 -68 -113 -59 -24 9 -35 7 -76 -17 l-47 -27
-60 26 c-70 30 -128 33 -157 9 -12 -10 -49 -69 -82 -132 -51 -96 -85 -153
-107 -181 -2 -2 -35 -7 -74 -11 -81 -7 -104 -24 -171 -124 -23 -33 -55 -75
-72 -93 -28 -30 -35 -32 -69 -26 -33 5 -45 2 -82 -25 -24 -17 -48 -31 -54 -31
-7 0 -34 11 -61 25 -54 27 -98 32 -122 13 -26 -22 -179 -290 -173 -305 10 -28
30 -5 111 133 44 76 89 140 98 142 9 2 32 -6 51 -18 72 -44 135 -43 174 3 9
12 29 17 61 17 62 0 86 19 161 131 32 48 67 92 77 97 9 5 46 12 81 15 79 7 98
23 166 147 124 224 117 219 211 176 67 -31 93 -32 143 -7 26 14 49 18 77 14
33 -4 45 0 79 27 103 82 160 150 126 150 -6 0 -48 -31 -96 -69z"/>
<path d="M10127 9394 c-4 -4 -7 -14 -7 -23 0 -11 3 -12 11 -4 6 6 10 16 7 23
-2 6 -7 8 -11 4z"/>
<path d="M6562 9374 c-44 -30 -66 -106 -40 -132 7 -7 22 -12 34 -12 49 0 40
-54 -12 -76 -19 -8 -34 -21 -34 -29 0 -19 13 -19 50 0 37 19 62 66 58 108 -3
28 -7 32 -36 35 -18 2 -36 10 -39 18 -7 20 24 64 46 64 16 0 31 18 31 36 0 10
-38 3 -58 -12z"/>
<path d="M10216 9343 l-14 -48 -7 33 c-9 37 -25 43 -25 8 0 -31 20 -86 31 -86
12 0 25 29 33 73 4 21 10 45 13 53 3 8 0 14 -6 14 -6 0 -17 -21 -25 -47z"/>
<path d="M4873 9350 c-24 -10 -38 -48 -30 -80 4 -15 -1 -20 -22 -22 l-26 -3
-3 -108 -3 -108 103 55 103 55 3 61 c2 33 1 60 -2 60 -3 0 -45 -16 -92 -36
-87 -36 -124 -40 -65 -7 64 35 68 41 48 57 -20 16 -20 47 1 54 8 2 12 -7 12
-26 0 -38 19 -45 65 -26 23 9 35 21 35 34 0 27 -12 31 -43 15 -26 -13 -27 -13
-27 11 0 26 -17 30 -57 14z"/>
<path d="M5862 9343 c-16 -14 -27 -48 -47 -142 -14 -68 -23 -126 -21 -129 11
-10 36 21 36 44 0 16 10 28 30 39 37 19 37 19 44 -7 5 -21 7 -22 22 -6 15 15
15 22 -6 105 -31 117 -31 118 -58 96z m11 -148 c-25 -19 -35 -18 -29 3 2 9 8
37 12 62 l7 45 15 -48 c13 -45 12 -50 -5 -62z"/>
<path d="M10070 9303 l0 -58 -20 25 c-11 14 -20 31 -20 38 0 8 -8 12 -17 10
-15 -3 -18 -17 -21 -91 -2 -60 1 -87 8 -82 5 3 10 31 10 61 0 30 4 54 9 54 5
0 16 -18 25 -41 26 -64 41 -45 44 54 2 55 -1 87 -8 87 -6 0 -10 -25 -10 -57z"/>
<path d="M7917 9343 c-4 -3 -7 -21 -7 -39 0 -23 -6 -37 -19 -44 -28 -15 -31
-13 -31 20 0 22 -4 28 -15 24 -20 -8 -22 -178 -2 -172 6 3 13 22 15 44 2 21 9
42 15 46 24 15 37 8 37 -22 0 -16 5 -30 10 -30 6 0 10 37 10 90 0 90 -1 96
-13 83z"/>
<path d="M7982 9327 c-28 -29 -31 -104 -6 -114 21 -8 48 9 53 33 3 18 2 18
-16 2 -24 -22 -33 -23 -33 -3 0 8 14 21 30 30 31 16 39 42 18 63 -17 17 -21
15 -46 -11z m28 -16 c0 -5 -7 -14 -15 -21 -12 -10 -15 -10 -15 2 0 8 3 18 7
21 9 10 23 9 23 -2z"/>
<path d="M10127 9343 c-11 -10 -8 -133 3 -133 6 0 10 30 10 70 0 70 -1 76 -13
63z"/>
<path d="M5730 9271 c-30 -16 -57 -37 -58 -46 -3 -14 0 -15 17 -5 21 11 21 9
21 -95 0 -103 1 -105 20 -95 18 10 20 21 20 114 0 95 2 105 21 118 12 8 20 19
18 26 -3 8 -22 3 -59 -17z"/>
<path d="M6375 9257 c-52 -52 -71 -168 -35 -212 45 -54 140 51 140 154 0 95
-44 119 -105 58z m63 -66 c5 -84 -28 -140 -64 -110 -37 30 2 175 44 167 13 -2
18 -16 20 -57z"/>
<path d="M8250 9222 c-39 -39 -50 -62 -30 -62 6 0 21 12 34 27 15 17 29 24 39
20 25 -9 21 -44 -8 -73 -33 -33 -32 -50 3 -49 34 0 42 -34 17 -72 -14 -20 -22
-24 -45 -19 -32 6 -56 -14 -46 -39 18 -47 114 16 134 89 11 39 3 81 -18 88 -7
2 -5 14 6 37 12 25 14 41 8 60 -15 41 -48 39 -94 -7z"/>
<path d="M5587 9188 c-18 -14 -74 -254 -62 -266 9 -9 35 27 35 50 0 9 13 24
30 33 37 19 40 19 40 -5 0 -21 7 -25 28 -12 9 7 6 31 -14 110 -15 56 -30 102
-34 102 -3 0 -14 -6 -23 -12z m15 -145 c-35 -28 -36 -20 -15 80 l7 32 11 -50
c11 -43 10 -52 -3 -62z"/>
<path d="M6183 9159 l-33 -21 0 -114 c0 -63 3 -114 6 -114 23 0 96 61 115 95
27 46 32 132 10 158 -18 23 -59 21 -98 -4z m65 -31 c28 -28 4 -130 -38 -156
-19 -12 -20 -10 -20 71 0 46 3 87 7 90 10 11 38 8 51 -5z"/>
<path d="M10236 9149 c-35 -27 -63 -79 -42 -79 7 0 21 11 30 25 9 14 25 25 36
25 29 0 26 -41 -5 -78 -31 -37 -31 -40 3 -44 21 -2 28 -9 30 -30 4 -36 -31
-72 -63 -64 -27 7 -50 -16 -41 -40 8 -22 62 -12 94 19 52 49 69 126 33 149
-18 11 -18 14 -5 39 39 76 -7 127 -70 78z"/>
<path d="M8085 9142 c-33 -20 -63 -67 -51 -79 4 -5 18 4 30 20 22 28 55 36 57
15 3 -28 -4 -44 -27 -69 -31 -33 -30 -40 4 -37 24 3 27 -1 30 -30 4 -45 -22
-76 -59 -68 -46 9 -70 -38 -24 -50 33 -8 88 27 109 70 21 44 21 102 0 114 -13
7 -14 13 -5 30 22 42 8 102 -23 102 -6 0 -24 -8 -41 -18z"/>
<path d="M5415 9097 l-40 -23 -3 -118 c-2 -106 -1 -118 13 -112 9 3 19 6 21 6
2 0 4 27 4 60 0 70 14 78 38 20 18 -43 20 -44 41 -31 11 7 10 16 -7 53 -17 39
-18 47 -5 64 18 25 13 98 -7 101 -8 2 -33 -7 -55 -20z m40 -52 c0 -18 -8 -33
-22 -42 -23 -15 -23 -15 -23 25 0 38 11 54 35 48 6 -2 10 -15 10 -31z"/>
<path d="M6040 9075 c-12 -14 -72 -256 -66 -263 10 -10 36 15 41 39 6 26 38
59 58 59 4 0 11 -9 15 -20 6 -17 10 -18 24 -8 15 12 14 21 -9 111 -26 96 -38
112 -63 82z m24 -87 c6 -34 3 -45 -10 -55 -24 -18 -26 -13 -18 46 8 62 19 66
28 9z"/>
<path d="M10047 9050 c-36 -29 -57 -71 -57 -115 0 -56 16 -78 51 -71 16 3 29
4 29 1 0 -2 -9 -28 -20 -56 -12 -28 -19 -54 -16 -56 15 -15 55 54 85 144 28
84 32 108 25 135 -8 27 -15 34 -40 36 -19 2 -40 -5 -57 -18z m55 -45 c17 -37
-13 -98 -45 -93 -32 4 -37 68 -8 97 27 27 39 26 53 -4z"/>
<path d="M5288 9029 c-55 -28 -75 -45 -65 -55 3 -3 15 -1 26 6 21 11 21 9 21
-95 0 -58 4 -105 8 -105 24 0 32 30 32 126 0 93 2 103 21 116 12 8 20 19 18
25 -3 7 -25 0 -61 -18z"/>
<path d="M7912 9044 c-37 -26 -90 -223 -72 -269 20 -53 100 -23 139 52 15 30
14 95 -3 119 -13 17 -18 18 -45 7 -17 -6 -31 -10 -31 -8 0 3 9 28 20 56 12 28
19 53 17 55 -2 2 -13 -3 -25 -12z m36 -176 c2 -27 -3 -43 -18 -58 -30 -30 -44
-21 -48 29 -4 48 12 73 42 69 16 -2 22 -11 24 -40z"/>
<path d="M5914 9006 c-3 -8 -4 -47 -2 -85 1 -39 2 -71 1 -71 -2 0 -16 27 -33
60 -27 54 -33 59 -50 50 -18 -10 -20 -21 -20 -126 0 -88 3 -115 13 -112 8 3
14 34 17 89 l5 84 29 -60 c16 -33 30 -61 32 -63 1 -2 12 1 23 8 19 10 21 19
21 125 0 97 -2 115 -15 115 -9 0 -18 -6 -21 -14z"/>
<path d="M5686 8885 c-48 -44 -72 -139 -52 -203 13 -41 68 -38 119 6 12 11 17
30 17 74 0 32 -3 58 -8 58 -13 0 -52 -30 -52 -41 0 -5 7 -9 15 -9 17 0 20 -32
5 -61 -6 -10 -19 -19 -30 -19 -40 0 -51 62 -24 130 12 31 23 42 48 48 17 5 32
16 34 25 5 26 -40 21 -72 -8z"/>
<path d="M5562 8818 c-8 -8 -12 -51 -12 -126 0 -103 2 -113 18 -110 15 3 17
18 20 126 1 67 -1 122 -6 122 -4 0 -13 -5 -20 -12z"/>
<path d="M9087 8794 c-10 -10 -9 -194 2 -194 4 0 11 42 14 92 6 86 0 118 -16
102z"/>
<path d="M5475 8770 c-78 -32 -97 -150 -25 -150 25 0 30 -4 30 -23 0 -27 -25
-53 -55 -59 -11 -2 -20 -10 -20 -18 0 -27 32 -22 69 10 59 53 59 130 -1 130
-48 0 -41 53 10 78 15 7 27 20 27 28 0 16 -6 17 -35 4z"/>
<path d="M8935 8697 c-4 -10 -5 -21 -1 -24 10 -10 18 4 13 24 -4 17 -4 17 -12
0z"/>
<path d="M9003 8683 c-23 -9 -15 -32 10 -26 21 6 21 5 -5 -24 -29 -30 -38 -83
-15 -83 7 0 23 7 35 16 20 14 23 23 20 67 -3 52 -14 64 -45 50z m27 -82 c0
-10 -7 -21 -15 -25 -15 -5 -22 24 -8 37 12 13 23 7 23 -12z"/>
<path d="M5298 8668 c-14 -12 -68 -209 -68 -251 0 -28 30 -7 37 25 4 18 16 34
34 43 36 19 36 19 43 -7 5 -21 7 -22 22 -7 15 15 15 21 1 70 -9 30 -21 73 -27
97 -12 45 -17 49 -42 30z m25 -105 c5 -26 2 -35 -14 -44 -11 -6 -23 -8 -26 -6
-2 3 1 32 7 64 13 60 19 58 33 -14z"/>
<path d="M8937 8643 c-4 -3 -7 -36 -7 -72 1 -60 2 -64 15 -47 9 12 15 42 15
73 0 49 -7 63 -23 46z"/>
<path d="M8878 8606 c-14 -10 -18 -28 -18 -75 0 -39 4 -60 10 -56 6 3 10 27
10 52 0 34 6 53 22 70 24 26 6 32 -24 9z"/>
<path d="M8788 8560 c-22 -13 -40 -72 -32 -104 10 -41 74 -30 74 13 0 12 -3
11 -18 -2 -23 -21 -32 -21 -32 -2 0 9 11 20 24 27 30 13 36 26 25 56 -9 24
-16 26 -41 12z m22 -29 c0 -5 -7 -14 -15 -21 -12 -10 -15 -10 -15 2 0 8 3 18
7 21 9 10 23 9 23 -2z"/>
<path d="M8707 8544 c-4 -4 -7 -16 -7 -26 0 -10 -6 -18 -12 -18 -7 -1 -24 -10
-37 -21 -20 -16 -26 -32 -29 -81 -4 -48 -2 -60 9 -56 9 3 15 23 17 55 2 38 9
56 27 73 l25 23 0 -51 c0 -39 4 -52 14 -52 19 0 33 23 18 28 -16 5 -15 65 0
80 9 9 10 15 2 20 -6 4 -13 13 -15 20 -3 7 -8 10 -12 6z"/>
<path d="M8543 8468 c-6 -7 -18 -49 -28 -93 -10 -44 -20 -85 -22 -92 -11 -27
15 -11 27 16 15 36 40 48 56 26 21 -28 27 3 14 66 -15 71 -31 97 -47 77z m19
-69 c4 -23 0 -33 -15 -41 -17 -9 -19 -8 -14 7 4 9 7 28 7 41 0 35 17 30 22 -7z"/>
<path d="M8296 8362 c-14 -23 -25 -62 -17 -62 10 0 34 61 27 67 -2 3 -7 0 -10
-5z"/>
<path d="M8373 8323 c-20 -13 -23 -25 -23 -75 0 -77 23 -75 30 2 6 69 30 81
30 16 0 -46 12 -61 24 -30 3 9 6 28 6 44 0 60 -22 75 -67 43z"/>
<path d="M9432 8300 c-10 -16 -41 -71 -68 -121 -27 -50 -62 -106 -77 -125 -26
-31 -33 -34 -86 -34 -67 0 -108 -22 -210 -113 -35 -32 -73 -57 -84 -57 -12 0
-38 12 -60 27 -42 29 -96 35 -123 12 -8 -7 -49 -79 -90 -159 -78 -156 -82
-159 -164 -176 -58 -11 -100 -38 -202 -128 l-98 -86 -77 0 -78 0 -92 -97 c-62
-66 -93 -106 -93 -121 l0 -24 28 24 c15 12 51 50 81 83 80 88 93 95 180 95 71
0 74 1 105 34 94 102 226 186 293 186 40 0 80 51 153 196 78 157 90 167 142
128 82 -59 98 -58 188 22 106 92 129 104 208 111 59 5 75 10 96 32 31 32 166
279 166 303 0 27 -18 21 -38 -12z"/>
<path d="M8270 8265 c-31 -33 -36 -117 -7 -123 43 -9 82 73 58 124 -13 30 -22
30 -51 -1z m28 -52 c-2 -26 -8 -38 -18 -38 -14 0 -17 30 -5 63 10 28 26 10 23
-25z"/>
<path d="M8194 8265 c-9 -22 1 -29 15 -11 8 10 9 16 1 21 -5 3 -13 -1 -16 -10z"/>
<path d="M8198 8224 c-5 -4 -8 -37 -8 -73 0 -45 3 -62 11 -54 5 5 9 38 7 72
-2 35 -6 59 -10 55z"/>
<path d="M8120 8180 c-11 -11 -20 -31 -20 -45 0 -18 5 -25 20 -25 11 0 20 -4
20 -10 0 -5 -9 -15 -20 -22 -23 -15 -26 -28 -7 -28 22 0 47 34 47 63 0 20 -5
27 -20 27 -11 0 -20 4 -20 10 0 5 9 14 20 20 21 11 27 30 10 30 -5 0 -19 -9
-30 -20z"/>
<path d="M8024 8125 c-42 -42 -27 -137 20 -119 18 7 42 44 28 44 -4 0 -13 -5
-20 -12 -9 -9 -15 -9 -23 -1 -7 7 -2 17 20 32 19 14 31 31 31 46 0 34 -27 39
-56 10z m36 -13 c0 -11 -22 -32 -32 -32 -5 0 -4 9 2 20 11 20 30 28 30 12z"/>
<path d="M5310 8033 c1 -99 2 -106 16 -88 32 41 35 53 17 65 -16 10 -15 10 4
5 18 -5 27 1 43 27 11 18 20 36 20 40 0 4 -22 19 -50 33 l-50 25 0 -107z m74
61 c18 -7 12 -24 -8 -24 -7 0 -13 7 -13 15 0 17 0 17 21 9z m0 -49 c-4 -8 -8
-15 -10 -15 -2 0 -4 7 -4 15 0 8 4 15 10 15 5 0 7 -7 4 -15z"/>
<path d="M7958 8089 c-14 -8 -18 -23 -18 -69 0 -33 4 -60 10 -60 6 0 10 19 10
43 0 24 7 52 15 63 25 33 17 43 -17 23z"/>
<path d="M7846 8074 c-21 -20 -24 -178 -3 -172 6 3 13 21 15 41 2 23 10 41 21
47 22 11 45 64 37 85 -7 20 -50 19 -70 -1z m49 -14 c7 -12 -12 -50 -25 -50
-11 0 -14 43 -3 53 9 10 21 9 28 -3z"/>
<path d="M8267 8010 c-37 -29 -62 -103 -61 -180 0 -81 15 -110 53 -110 37 0
76 44 92 103 16 60 8 161 -15 186 -24 26 -37 26 -69 1z m44 -52 c16 -30 6
-155 -14 -175 -50 -50 -75 69 -35 170 13 33 33 35 49 5z"/>
<path d="M6417 7963 c-4 -3 -7 -45 -8 -92 l-1 -86 -26 55 c-40 82 -40 82 -63
70 -17 -10 -19 -22 -19 -130 0 -101 2 -118 15 -114 11 4 15 28 17 92 l3 87 28
-60 c35 -72 31 -68 56 -60 20 6 21 14 21 126 0 109 -5 131 -23 112z"/>
<path d="M8069 7891 c-22 -21 -39 -48 -39 -60 0 -31 15 -26 39 14 24 40 61 49
61 14 0 -12 -22 -66 -50 -120 -27 -54 -50 -110 -50 -124 l0 -26 68 37 c37 21
69 39 71 40 2 2 1 10 -3 19 -5 14 -10 13 -46 -5 -22 -11 -40 -18 -40 -15 0 3
17 40 39 83 46 91 56 133 41 161 -16 32 -48 25 -91 -18z"/>
<path d="M6203 7843 l-43 -24 0 -115 c0 -63 2 -114 5 -114 13 0 82 40 94 53
17 21 -2 30 -25 12 -28 -22 -34 -18 -34 20 0 28 5 37 30 50 29 15 40 35 19 35
-6 0 -19 -5 -30 -10 -17 -10 -19 -7 -19 24 0 29 5 38 30 51 17 9 30 22 30 30
0 19 -6 18 -57 -12z"/>
<path d="M7891 7784 c-23 -26 -41 -52 -41 -59 0 -25 15 -24 37 2 l22 28 1
-118 c0 -116 0 -118 21 -107 20 11 20 18 17 152 -2 77 -6 142 -10 144 -3 2
-25 -17 -47 -42z"/>
<path d="M5310 7720 c0 -59 4 -99 9 -95 5 3 23 27 39 54 29 46 29 48 9 44 -16
-3 -18 -2 -8 5 8 6 9 12 3 16 -13 8 -8 42 7 39 18 -5 12 14 -6 20 -10 2 -26 8
-35 12 -16 7 -18 -2 -18 -95z"/>
<path d="M5390 7781 c0 -5 5 -13 10 -16 6 -3 10 -2 10 4 0 5 -4 13 -10 16 -5
3 -10 2 -10 -4z"/>
<path d="M6083 7772 c-17 -12 -27 -39 -39 -97 -9 -44 -19 -84 -24 -88 -4 -5
-15 21 -25 57 -10 36 -21 66 -24 66 -4 0 -17 -7 -29 -16 -21 -14 -22 -23 -22
-130 0 -63 4 -114 8 -114 22 0 32 30 33 100 l1 75 21 -69 c21 -65 23 -67 39
-50 9 11 25 60 36 109 l20 90 1 -82 c1 -80 8 -97 28 -70 12 14 17 237 6 237
-5 0 -18 -8 -30 -18z"/>
<path d="M5857 7653 c-4 -3 -7 -46 -7 -95 0 -85 -10 -124 -34 -140 -25 -16
-36 15 -36 105 l0 90 -21 -19 c-20 -18 -21 -26 -15 -107 3 -49 8 -93 12 -98 8
-13 56 -11 75 4 40 31 52 67 57 168 4 82 2 99 -10 99 -8 0 -18 -3 -21 -7z"/>
<path d="M5664 7550 c-35 -14 -64 -59 -64 -100 0 -40 11 -50 56 -50 46 0 20
-71 -27 -75 -16 -1 -25 -9 -27 -23 -4 -26 -2 -26 43 -8 45 19 67 55 63 103 -3
35 -6 38 -38 43 -58 8 -51 52 13 85 45 22 28 44 -19 25z"/>
<path d="M5509 7461 l-46 -29 -1 -116 c-1 -64 2 -116 7 -116 19 0 101 61 101
76 0 15 -2 15 -25 0 -35 -23 -45 -20 -45 14 0 24 7 35 30 48 30 17 43 49 15
38 -8 -3 -22 -9 -30 -12 -11 -5 -15 1 -15 25 0 22 7 35 28 48 28 18 42 33 42
46 0 12 -14 8 -61 -22z"/>
<path d="M6132 7440 c-49 -49 -67 -173 -31 -216 29 -35 91 -5 120 60 20 45 25
136 9 167 -16 29 -63 25 -98 -11z m66 -81 c2 -54 -1 -70 -17 -90 -16 -20 -23
-22 -38 -13 -44 27 -17 179 31 172 19 -3 21 -11 24 -69z"/>
<path d="M5345 7367 l-40 -23 -3 -117 c-1 -64 1 -117 6 -117 20 0 32 27 32 72
0 57 14 62 37 13 18 -38 21 -39 42 -26 13 8 12 15 -3 50 -18 39 -18 42 -1 77
13 27 15 44 9 63 -12 34 -31 36 -79 8z m40 -28 c11 -17 -4 -58 -24 -68 -16 -9
-20 -6 -23 14 -8 39 30 82 47 54z"/>
<path d="M5986 7364 c-38 -36 -56 -82 -56 -144 0 -66 13 -90 49 -90 36 0 81
35 81 62 l0 21 -23 -21 c-31 -30 -55 -28 -68 5 -21 57 14 150 58 155 17 2 29
10 31 21 5 27 -38 21 -72 -9z"/>
<path d="M5873 7303 c-16 -6 -19 -243 -3 -243 18 0 21 22 18 136 -2 83 -6 110
-15 107z"/>
<path d="M5793 7252 c-7 -5 -13 -39 -15 -87 l-3 -80 -23 50 c-34 72 -41 79
-63 59 -16 -15 -19 -33 -19 -131 0 -62 4 -113 9 -113 23 0 32 32 29 105 -2 41
-2 75 -1 75 2 0 16 -27 33 -60 32 -63 40 -69 59 -46 17 20 11 238 -6 228z"/>
<path d="M5628 7228 c-8 -13 -21 -34 -28 -48 l-13 -25 23 20 c26 23 55 75 41
75 -5 0 -15 -10 -23 -22z"/>
<path d="M5602 7148 c-8 -8 -12 -52 -12 -130 0 -116 1 -118 20 -108 18 10 20
21 20 130 0 66 -4 120 -8 120 -4 0 -13 -5 -20 -12z"/>
<path d="M5472 7078 c-8 -8 -12 -50 -12 -125 0 -62 2 -113 4 -113 17 0 96 55
96 67 0 9 -6 13 -15 9 -8 -3 -22 -9 -30 -12 -13 -5 -15 9 -15 90 0 95 -4 108
-28 84z"/>
<path d="M5368 7025 c-39 -22 -68 -90 -68 -163 0 -54 3 -63 24 -77 20 -13 29
-14 48 -4 37 19 58 41 58 61 0 22 -18 24 -26 3 -4 -9 -15 -20 -24 -25 -44 -24
-66 62 -36 135 11 25 23 36 48 43 18 4 34 16 36 25 4 21 -23 22 -60 2z"/>
<path d="M5310 6468 c0 -58 4 -98 9 -92 4 5 29 40 55 79 l46 70 -38 22 c-68
42 -72 37 -72 -79z"/>
<path d="M5310 6160 c0 -55 2 -100 4 -100 3 0 34 45 90 132 l18 28 -43 20
c-70 31 -69 32 -69 -80z"/>
<path d="M5310 5860 c0 -55 4 -100 9 -100 5 0 24 24 42 53 17 28 38 62 46 74
14 21 12 23 -36 47 -28 14 -53 26 -56 26 -3 0 -5 -45 -5 -100z"/>
<path d="M5132 5549 c-50 -32 -82 -95 -82 -160 0 -54 -1 -55 -35 -68 -19 -7
-55 -27 -79 -46 l-44 -33 0 44 c2 127 -136 103 -208 -36 -21 -42 -25 -130 -5
-153 17 -21 63 -22 100 -2 l29 14 -14 -46 c-19 -64 -18 -109 6 -158 83 -171
358 19 378 260 3 47 0 71 -12 96 -12 23 -13 35 -5 38 24 8 81 66 100 102 42
83 12 169 -59 169 -20 0 -52 -10 -70 -21z m-112 -372 c0 -27 0 -27 30 -12 40
20 40 20 40 -24 0 -34 -5 -42 -35 -60 -31 -18 -35 -25 -35 -61 0 -35 -4 -43
-32 -60 -39 -23 -48 -19 -48 26 0 34 -1 35 -22 20 -35 -25 -48 -20 -48 19 0
30 5 39 35 56 31 19 35 26 35 63 0 28 6 48 18 58 40 35 62 26 62 -25z"/>
<path d="M17512 13715 c-26 -19 -47 -56 -57 -103 -6 -29 -5 -32 17 -30 20 3
23 -2 26 -32 4 -41 18 -61 28 -37 6 18 -24 107 -37 107 -13 0 10 64 28 78 10
7 28 11 41 9 14 -3 21 0 19 7 -6 18 -40 18 -65 1z"/>
<path d="M17456 13330 c-23 -138 -66 -209 -169 -277 -124 -81 -116 -74 -87
-67 87 21 183 101 225 189 26 52 49 153 42 183 -2 9 -7 -3 -11 -28z"/>
<path d="M15144 13296 c-12 -31 0 -61 27 -64 31 -4 52 18 47 50 -2 18 -10 24
-36 26 -21 2 -34 -2 -38 -12z m50 -15 c3 -5 -1 -14 -8 -20 -16 -13 -32 2 -21
19 8 12 22 13 29 1z"/>
<path d="M15597 13183 c-16 -8 -27 -17 -24 -20 3 -2 14 0 26 6 16 9 23 7 36
-11 l17 -23 -7 25 c-11 37 -17 40 -48 23z"/>
<path d="M15268 13012 c-103 -54 -191 -102 -195 -106 -4 -5 11 1 34 13 55 28
59 27 57 -11 -1 -18 1 -23 3 -10 3 17 25 33 86 63 76 37 82 39 94 23 12 -17
13 -17 13 2 0 45 48 59 74 22 23 -33 20 -74 -6 -92 -30 -21 -35 -20 -53 12
l-16 27 6 -32 c7 -36 -7 -44 -25 -15 -9 14 -10 12 -8 -12 5 -46 -17 -41 -33 9
-10 32 -18 42 -27 37 -10 -7 -9 -16 3 -45 18 -43 19 -57 5 -57 -6 0 -15 12
-20 28 -24 64 -22 63 -50 42 l-25 -19 29 -10 c15 -6 30 -20 33 -31 3 -11 10
-20 15 -20 6 0 8 -9 5 -20 -3 -11 -1 -23 4 -26 5 -3 9 -1 9 5 0 5 16 15 35 22
19 7 35 17 35 21 0 4 5 8 12 8 6 0 19 6 27 14 9 7 44 28 79 46 64 34 96 34 52
0 l-25 -20 28 0 c15 0 27 -4 27 -10 0 -5 -7 -10 -15 -10 -8 0 -15 -9 -15 -20
0 -18 3 -19 20 -10 16 8 20 8 20 -4 0 -18 -36 -40 -50 -31 -5 3 -12 21 -16 40
-3 19 -11 35 -16 35 -6 0 -7 -8 -3 -17 4 -10 9 -33 12 -50 8 -50 -15 -41 -28
10 -6 27 -16 44 -25 44 -10 0 -13 -6 -8 -16 23 -58 26 -73 15 -84 -8 -8 -16
-6 -29 7 -19 16 -19 16 -15 -7 4 -17 -2 -28 -22 -41 -25 -17 -27 -17 -41 1
-12 16 -12 15 -5 -13 11 -38 6 -46 -36 -68 -18 -9 -33 -19 -33 -22 0 -3 71 31
158 77 196 102 282 149 282 155 0 3 -10 -1 -22 -7 -12 -6 -37 -14 -55 -16 -26
-4 -32 -2 -27 10 3 8 -4 24 -16 35 -15 14 -21 33 -23 70 -2 45 -4 49 -18 36
-29 -26 -45 -16 -63 42 -12 37 -21 52 -26 44 -6 -10 -9 -9 -12 1 -3 8 1 22 10
32 8 9 13 17 11 17 -2 0 -88 -44 -191 -98z"/>
<path d="M15523 13102 c-9 -5 -6 -12 10 -21 19 -13 21 -12 10 1 -7 8 -10 18
-6 21 9 9 1 8 -14 -1z"/>
<path d="M15570 13089 c0 -5 5 -7 10 -4 6 3 10 8 10 11 0 2 -4 4 -10 4 -5 0
-10 -5 -10 -11z"/>
<path d="M15500 13048 c0 -26 12 -58 22 -58 14 0 5 63 -9 68 -7 2 -13 -2 -13
-10z"/>
<path d="M15681 13020 c0 -8 4 -22 9 -30 12 -18 12 -2 0 25 -6 13 -9 15 -9 5z"/>
<path d="M15390 12986 c0 -31 10 -56 21 -56 10 0 12 40 3 64 -9 24 -24 19 -24
-8z"/>
<path d="M15310 12955 c0 -8 5 -15 10 -15 6 0 10 7 10 15 0 8 -4 15 -10 15 -5
0 -10 -7 -10 -15z"/>
<path d="M15121 12885 c1 -19 18 -51 18 -35 0 8 -4 22 -9 30 -5 8 -9 11 -9 5z"/>
<path d="M15170 12849 c0 -8 11 -15 25 -15 14 -1 25 2 25 7 0 5 -4 9 -9 9 -5
0 -16 3 -25 6 -10 4 -16 1 -16 -7z"/>
<path d="M14915 12823 c-27 -14 -52 -27 -53 -28 -2 -2 20 -80 48 -174 l53
-170 69 35 c62 31 67 36 53 50 -8 9 -15 24 -15 33 0 10 -7 24 -15 31 -8 7 -15
16 -15 20 0 10 30 8 31 -2 1 -4 2 -12 3 -17 0 -5 4 -13 9 -17 11 -11 7 17 -8
56 -11 27 -14 30 -14 13 -1 -15 -6 -21 -15 -17 -8 3 -12 14 -9 27 4 18 3 19
-6 7 -9 -13 -11 -13 -11 2 0 10 12 24 28 33 26 15 26 15 2 9 -14 -4 -26 -11
-28 -15 -5 -12 -32 -11 -32 1 0 6 -4 10 -10 10 -5 0 -10 -9 -10 -20 0 -38 -19
-20 -37 36 -17 55 -17 57 2 70 10 8 27 12 37 8 10 -3 18 -1 18 5 0 6 -6 10
-12 9 -7 -2 -12 5 -12 15 1 9 1 17 0 17 0 -1 -23 -13 -51 -27z"/>
<path d="M15050 12830 c0 -11 -7 -20 -15 -20 -8 0 -15 -4 -15 -9 0 -5 9 -7 20
-4 13 3 20 14 20 29 0 13 -2 24 -5 24 -3 0 -5 -9 -5 -20z"/>
<path d="M15095 12840 c4 -6 11 -8 16 -5 14 9 11 15 -7 15 -8 0 -12 -5 -9 -10z"/>
<path d="M15390 12815 c7 -9 15 -13 17 -11 7 7 -7 26 -19 26 -6 0 -6 -6 2 -15z"/>
<path d="M15091 12804 c0 -11 3 -14 6 -6 3 7 2 16 -1 19 -3 4 -6 -2 -5 -13z"/>
<path d="M15220 12805 c-17 -10 -20 -14 -9 -15 9 0 22 7 29 15 15 18 12 18
-20 0z"/>
<path d="M15142 12772 c-11 -25 -11 -25 4 -10 9 9 15 21 13 27 -2 6 -10 -2
-17 -17z"/>
<path d="M15330 12784 c0 -11 7 -29 16 -40 14 -18 15 -18 8 6 -3 14 -10 32
-15 40 -7 12 -8 11 -9 -6z"/>
<path d="M15225 12770 c-10 -11 -16 -22 -14 -24 2 -2 12 7 22 20 22 29 17 32
-8 4z"/>
<path d="M14950 12764 c0 -8 5 -12 10 -9 6 3 10 10 10 16 0 5 -4 9 -10 9 -5 0
-10 -7 -10 -16z"/>
<path d="M15048 12771 c-11 -4 -14 -11 -9 -19 6 -10 10 -10 21 3 15 19 11 25
-12 16z"/>
<path d="M15268 12763 c-17 -4 -34 -33 -19 -33 5 0 8 -7 7 -16 0 -9 5 -19 13
-22 8 -3 11 0 7 7 -5 7 -1 9 8 5 12 -4 16 0 16 16 0 11 -4 19 -9 16 -5 -4 -7
3 -4 14 3 11 4 19 2 19 -2 -1 -11 -3 -21 -6z"/>
<path d="M14996 12751 c-3 -5 2 -15 12 -22 15 -12 16 -12 5 2 -7 9 -10 19 -6
22 3 4 4 7 0 7 -3 0 -8 -4 -11 -9z"/>
<path d="M15080 12739 c0 -5 5 -7 10 -4 6 3 10 8 10 11 0 2 -4 4 -10 4 -5 0
-10 -5 -10 -11z"/>
<path d="M15108 12713 c7 -3 16 -2 19 1 4 3 -2 6 -13 5 -11 0 -14 -3 -6 -6z"/>
<path d="M15206 12698 c16 -28 38 -48 53 -47 10 0 7 4 -7 10 -13 5 -26 18 -29
29 -3 11 -10 20 -15 20 -5 0 -6 -6 -2 -12z"/>
<path d="M15101 12664 c0 -11 3 -14 6 -6 3 7 2 16 -1 19 -3 4 -6 -2 -5 -13z"/>
<path d="M15296 12671 c-4 -5 3 -7 14 -4 23 6 26 13 6 13 -8 0 -17 -4 -20 -9z"/>
<path d="M15140 12655 c0 -9 -7 -18 -15 -21 -8 -4 -15 -11 -15 -16 0 -7 5 -6
13 1 8 6 17 8 20 4 4 -3 7 6 7 20 0 15 -2 27 -5 27 -3 0 -5 -7 -5 -15z"/>
<path d="M15517 12606 c-111 -59 -152 -86 -132 -86 13 0 238 120 255 136 26
25 -3 13 -123 -50z"/>
<path d="M15186 12641 c-3 -5 6 -8 20 -8 19 0 22 2 13 8 -18 11 -26 11 -33 0z"/>
<path d="M15184 12574 c-18 -14 -18 -15 4 -4 12 6 22 13 22 15 0 8 -5 6 -26
-11z"/>
<path d="M15124 12544 c-18 -14 -18 -14 6 -3 31 14 36 19 24 19 -6 0 -19 -7
-30 -16z"/>
<path d="M15473 12497 c-40 -22 -73 -44 -73 -49 0 -9 106 45 155 79 43 29 -13
9 -82 -30z"/>
<path d="M15587 12461 c-146 -83 -203 -124 -102 -73 72 36 236 130 250 143 24
23 -20 2 -148 -70z"/>
<path d="M15163 12444 c-15 -24 -15 -29 -2 -53 18 -32 54 -39 80 -15 21 19 25
64 7 82 -19 19 -33 14 -15 -6 20 -22 22 -53 5 -70 -19 -19 -36 -14 -52 17 -13
25 -13 31 0 50 8 11 10 21 5 21 -6 0 -18 -12 -28 -26z"/>
<path d="M15550 12257 c-302 -163 -293 -158 -287 -164 7 -6 520 266 542 288
23 23 -26 -1 -255 -124z"/>
<path d="M15260 12350 c0 -6 4 -9 9 -6 15 9 70 -24 77 -46 7 -22 -5 -34 -45
-44 -14 -4 -26 -2 -31 6 -4 6 -11 12 -16 13 -5 1 -15 12 -22 26 -11 22 -11 27
4 38 21 16 10 17 -17 3 -40 -22 -64 -112 -39 -150 8 -13 13 -13 37 3 15 10 54
30 86 45 63 30 70 46 35 86 -25 28 -78 46 -78 26z"/>
<path d="M15644 12182 c-105 -59 -228 -125 -272 -147 -45 -21 -82 -43 -82 -47
0 -12 241 111 413 209 81 47 147 87 147 89 0 11 -28 -4 -206 -104z"/>
<path d="M15863 12065 c-60 -41 -73 -42 -98 -15 -10 12 -25 19 -33 18 -15 -3
-55 -126 -46 -140 11 -17 23 4 34 57 12 59 22 67 42 35 7 -11 19 -20 26 -20
13 0 142 87 142 96 0 10 -19 1 -67 -31z"/>
<path d="M17042 12323 c83 -94 125 -225 138 -433 l8 -135 -2 160 c-3 138 -6
170 -27 230 -26 78 -91 180 -129 204 -20 12 -17 7 12 -26z"/>
<path d="M15904 11221 c-18 -11 -43 -34 -56 -53 -39 -52 -44 -67 -9 -26 18 21
48 51 69 68 42 34 41 38 -4 11z"/>
<path d="M17102 9537 c-1 -15 -9 -116 -16 -225 -18 -245 -25 -425 -15 -392 11
36 42 535 37 595 -3 28 -5 37 -6 22z"/>
<path d="M13140 5661 c-53 -17 62 52 -1450 -873 -1202 -735 -1110 -676 -1110
-717 0 -14 -23 -31 -86 -65 l-86 -46 -51 46 c-166 149 -483 306 -806 399 -318
91 -603 130 -956 128 -717 -2 -1334 -171 -1753 -482 -289 -215 -450 -464 -482
-746 -16 -143 -13 -617 5 -716 48 -279 198 -494 490 -705 174 -125 482 -263
749 -334 674 -180 1324 -180 1945 1 613 179 1038 506 1169 900 45 138 55 263
50 632 l-5 312 -31 92 c-17 51 -45 119 -62 152 -16 33 -30 62 -30 65 0 2 16
14 35 26 26 16 43 19 70 14 23 -4 49 -1 76 10 22 9 477 215 1012 457 535 243
1093 495 1241 561 312 138 432 197 465 229 50 47 66 104 66 230 0 113 -1 116
-38 193 -73 146 -199 239 -332 243 -38 1 -81 -1 -95 -6z m33 -72 c-11 -5 1 -8
33 -8 27 -1 56 -7 64 -13 11 -10 11 -9 0 6 -14 18 -13 19 18 14 18 -2 35 -1
38 4 3 4 15 3 27 -4 34 -18 127 -110 121 -119 -3 -5 -11 -6 -17 -2 -8 4 -8 2
1 -9 10 -13 10 -17 -4 -22 -9 -3 -14 -13 -11 -21 4 -9 1 -12 -8 -9 -20 8 -11
-34 12 -53 10 -8 13 -12 7 -9 -6 3 -11 -1 -11 -8 0 -9 7 -12 16 -8 27 10 -42
-65 -101 -111 -49 -38 -185 -117 -202 -117 -3 0 -6 5 -6 11 0 5 4 8 9 5 5 -3
12 1 15 10 3 8 2 12 -4 9 -6 -3 -10 1 -10 10 0 10 -5 13 -11 9 -8 -5 -10 3 -7
25 4 27 2 31 -18 31 -51 0 -134 54 -134 88 0 10 -5 12 -17 6 -10 -4 -37 -9
-61 -12 -81 -8 -109 54 -51 109 l32 30 -27 -11 c-33 -12 -36 -12 -36 -1 0 11
210 143 281 175 41 20 56 23 67 14 12 -10 11 -13 -5 -19z m-343 -199 c0 -5 -7
-7 -15 -4 -8 4 -15 8 -15 10 0 2 7 4 15 4 8 0 15 -4 15 -10z m-50 -17 c0 -5
-4 -14 -9 -22 -7 -12 -13 -12 -24 -3 -7 7 -18 8 -22 4 -5 -4 -5 -1 -1 6 5 7
14 11 22 8 8 -3 14 -1 14 4 0 6 5 10 10 10 6 0 10 -3 10 -7z m-68 -75 c-8 -8
-9 -4 -5 13 4 13 8 18 11 10 2 -7 -1 -18 -6 -23z m38 28 c0 -3 -4 -8 -10 -11
-5 -3 -10 -1 -10 4 0 6 5 11 10 11 6 0 10 -2 10 -4z m69 -49 c13 -6 29 -20 35
-30 14 -23 -15 -50 -125 -113 -43 -25 -79 -47 -79 -48 0 -2 11 -1 25 2 15 2
25 0 25 -7 0 -12 66 -15 73 -3 2 4 2 1 1 -5 -2 -7 5 -13 16 -13 11 0 20 5 20
11 0 5 5 7 10 4 6 -3 10 0 10 7 0 9 3 9 10 -2 5 -8 10 -10 10 -4 0 7 7 15 16
18 10 4 13 2 9 -7 -4 -6 1 -3 10 8 9 11 23 19 31 17 16 -3 20 23 4 33 -5 3 -7
12 -3 20 4 11 1 13 -10 9 -9 -3 -14 -11 -11 -18 3 -7 -1 -18 -9 -24 -11 -9
-14 -8 -14 3 0 8 4 12 9 9 11 -7 10 3 -2 27 -7 13 -7 19 0 19 5 0 10 12 10 28
0 19 3 23 9 13 5 -7 7 -23 5 -35 -2 -11 -1 -15 2 -7 5 10 8 11 14 1 4 -7 13
-9 19 -5 9 5 9 10 1 20 -11 13 -8 17 23 28 9 4 17 2 17 -3 0 -6 -7 -10 -15
-10 -17 0 -20 -16 -5 -25 8 -5 7 -11 -1 -21 -10 -12 -9 -13 6 -8 13 5 16 4 11
-4 -5 -8 -2 -10 8 -6 12 5 13 9 3 25 -9 14 -9 21 2 31 9 8 12 9 7 1 -3 -6 -2
-14 4 -18 6 -4 8 -11 4 -16 -3 -6 3 -13 15 -16 12 -3 21 -12 21 -20 0 -12 -3
-12 -16 2 -9 9 -19 13 -23 9 -3 -4 0 -9 7 -11 6 -3 10 -9 6 -14 -3 -5 2 -9 10
-9 9 0 16 -5 16 -11 0 -11 -15 -4 -43 19 -9 8 -20 12 -24 9 -3 -4 -14 3 -24
14 -9 11 -20 16 -23 11 -3 -6 1 -13 10 -16 8 -3 13 -10 10 -15 -3 -5 2 -15 11
-22 10 -8 14 -9 10 -2 -4 6 -3 14 3 18 5 3 10 -1 10 -10 0 -9 4 -14 9 -11 5 3
14 0 20 -8 8 -10 5 -15 -14 -24 -14 -6 -32 -9 -40 -6 -10 4 -15 0 -15 -14 0
-11 -8 -26 -17 -33 -17 -13 -17 -12 -4 4 13 16 13 20 1 27 -10 6 -19 2 -28
-11 -12 -18 -11 -22 8 -39 l22 -19 -174 -84 c-220 -108 -249 -120 -241 -101 3
8 10 11 17 7 6 -4 5 1 -3 10 -7 9 -17 15 -21 12 -5 -3 -11 -1 -15 5 -8 13 -45
13 -45 -1 0 -5 5 -7 10 -4 13 8 40 -12 40 -29 0 -6 -5 -3 -11 6 -10 18 -36 14
-52 -6 -5 -6 -5 -1 -2 12 5 16 2 22 -10 22 -9 0 -14 -4 -10 -9 3 -5 1 -12 -5
-16 -5 -3 -10 3 -10 13 0 16 9 21 45 26 24 4 47 11 50 16 3 5 -9 5 -27 0 -33
-10 -53 -5 -24 6 9 3 14 9 12 13 -12 18 -15 81 -4 81 6 0 9 3 6 6 -6 6 -373
-199 -398 -223 -11 -10 -5 -9 18 2 26 13 36 14 47 5 8 -7 22 -9 31 -6 15 6 15
4 3 -11 -9 -11 -10 -14 -1 -9 6 4 12 2 12 -3 0 -6 5 -11 11 -11 6 0 9 6 6 14
-4 11 -1 11 19 2 13 -6 24 -14 24 -18 0 -5 6 -8 14 -8 8 0 17 -4 20 -9 4 -5
-4 -7 -16 -3 -13 3 -19 1 -15 -6 17 -26 -17 -50 -189 -133 -172 -84 -243 -106
-229 -72 3 10 0 11 -15 3 -16 -9 -18 -8 -14 5 10 26 -13 42 -57 40 -25 -2 -36
1 -28 6 7 4 11 10 8 13 -4 4 -352 -183 -366 -197 -2 -3 7 -4 21 -3 14 0 26 5
26 10 0 5 6 3 13 -3 8 -6 17 -8 20 -4 4 3 7 1 7 -6 0 -7 4 -10 9 -6 5 3 13 1
16 -5 5 -8 11 -7 21 1 13 10 18 6 15 -13 0 -3 11 -5 24 -3 13 1 22 -2 19 -6
-3 -5 -11 -9 -19 -9 -7 0 -15 -4 -17 -9 -5 -14 -436 -224 -478 -233 -8 -2 -18
-7 -22 -13 -5 -6 -12 -5 -20 3 -17 17 -28 15 -28 -6 0 -11 -14 -25 -36 -35
-37 -18 -57 -15 -48 7 3 8 1 17 -5 21 -6 3 -11 2 -11 -4 0 -6 -7 -8 -15 -5 -8
4 -12 10 -9 15 3 5 0 9 -6 9 -6 0 -9 4 -6 8 3 5 -1 9 -9 9 -8 0 -12 -4 -9 -9
6 -9 1 -10 -20 -2 -8 3 -12 12 -9 20 3 9 -2 14 -16 14 -23 0 -28 -19 -8 -39 6
-7 -2 -4 -20 5 -17 10 -29 22 -27 26 3 5 9 6 14 3 4 -3 13 1 19 9 8 10 9 16 1
19 -6 3 -5 4 2 3 23 -6 70 24 64 40 -3 9 -1 12 4 9 6 -3 10 -2 10 4 0 17 464
304 474 294 3 -4 6 -1 6 5 0 7 7 12 15 12 8 0 15 5 15 12 0 9 3 9 12 0 9 -9
14 -7 24 6 12 15 12 15 7 -5 -3 -13 -21 -32 -39 -44 -51 -31 -41 -34 14 -3 76
44 112 70 106 76 -3 3 3 5 13 4 10 0 17 5 15 12 -1 8 2 11 8 7 6 -3 44 15 85
40 76 48 99 68 45 40 -30 -15 -47 -16 -43 -2 2 4 -3 7 -10 7 -14 0 51 42 289
186 94 57 176 104 183 104 6 0 11 4 11 9 0 5 6 11 14 14 11 5 12 0 3 -24 -6
-16 -15 -29 -19 -29 -4 0 -8 -4 -8 -10 0 -5 16 0 36 12 27 16 32 23 22 30 -9
7 -8 8 5 4 12 -4 49 13 103 45 46 28 84 53 84 55 0 3 -9 0 -20 -6 -19 -10 -24
-6 -21 13 1 5 -3 6 -9 2 -6 -3 -8 -10 -5 -15 3 -5 -3 -14 -14 -20 -14 -7 -22
-7 -26 0 -8 13 14 42 25 35 5 -3 10 -1 12 4 4 12 308 201 323 201 22 0 25 -13
10 -37 l-16 -24 38 24 c132 83 197 103 252 74z m-655 -309 c-3 -5 -10 -6 -15
-3 -5 4 -9 1 -9 -6 0 -7 -6 -4 -14 7 -10 13 -11 21 -4 26 13 8 49 -13 42 -24z
m-47 -13 c4 -4 2 -5 -4 -1 -7 4 -13 3 -13 -2 0 -5 -7 -9 -15 -9 -15 0 -20 9
-9 19 7 8 32 4 41 -7z m308 -15 c3 -5 1 -10 -4 -10 -6 0 -11 5 -11 10 0 6 2
10 4 10 3 0 8 -4 11 -10z m-45 -116 c0 -16 -6 -24 -17 -24 -15 0 -16 2 -3 10
9 6 11 13 5 18 -5 4 -11 15 -11 25 -2 14 1 15 12 6 8 -6 14 -22 14 -35z m-126
-86 c-10 -16 -22 -7 -17 13 4 15 8 17 14 8 4 -7 5 -17 3 -21z m121 14 c-3 -3
-11 0 -18 7 -9 10 -8 11 6 5 10 -3 15 -9 12 -12z m-845 -162 c0 -19 -40 -32
-56 -19 -19 16 2 31 30 23 13 -4 16 -3 11 6 -5 9 -4 11 3 6 7 -4 12 -11 12
-16z m-115 -59 c3 -5 2 -12 -3 -15 -5 -3 -9 1 -9 9 0 17 3 19 12 6z m-2480
-57 c414 -45 735 -133 1050 -290 362 -179 604 -424 701 -709 24 -69 28 -96 28
-200 1 -145 -15 -208 -84 -350 -184 -378 -669 -688 -1290 -824 -308 -68 -499
-85 -868 -78 -273 5 -312 8 -477 36 -348 60 -585 133 -834 257 -378 187 -617
422 -714 701 -38 111 -48 265 -23 383 19 91 95 249 165 341 257 339 776 603
1371 698 375 60 647 70 975 35z m1865 -452 c0 -13 -2 -14 -9 -3 -5 7 -13 11
-19 7 -6 -3 -13 -3 -16 2 -2 4 6 9 20 10 17 1 24 -3 24 -16z m-144 -1227 c-17
-13 -18 -17 -6 -28 10 -9 12 -9 6 1 -4 6 -2 12 3 12 6 0 11 -5 11 -11 0 -5 5
-7 10 -4 6 3 14 -4 19 -17 33 -91 -20 -307 -112 -453 -49 -79 -128 -167 -144
-161 -8 3 -11 1 -8 -4 4 -6 -20 -37 -51 -70 -41 -43 -60 -57 -66 -48 -5 9 -8
9 -8 1 0 -12 -24 -12 -36 0 -4 4 -12 7 -18 7 -5 0 -2 -6 7 -12 14 -11 14 -16
2 -31 -8 -12 -15 -14 -20 -8 -3 6 -11 11 -16 11 -6 0 -3 -7 5 -16 21 -20 11
-36 -22 -34 -41 3 -45 1 -33 -14 9 -11 9 -16 0 -22 -7 -4 -9 -3 -5 4 4 6 -1
10 -12 9 -10 0 -19 -7 -19 -14 0 -6 4 -10 9 -7 4 3 8 3 8 0 0 -3 -8 -10 -18
-15 -13 -7 -19 -6 -20 2 -3 42 -7 54 -18 54 -7 0 -10 -7 -7 -14 6 -14 -17 -15
-27 -1 -3 4 -6 -10 -5 -31 0 -22 3 -37 8 -34 4 2 7 1 7 -4 0 -13 -61 -44 -72
-36 -6 3 -8 2 -5 -4 8 -13 -189 -107 -209 -99 -8 3 -13 2 -10 -3 7 -11 -162
-74 -175 -66 -5 4 -9 2 -9 -3 0 -13 -75 -33 -96 -25 -13 5 -15 3 -9 -7 6 -10
4 -12 -8 -7 -10 3 -17 2 -17 -3 0 -6 -7 -10 -16 -10 -8 0 -13 4 -10 9 4 5 -3
7 -15 4 -14 -4 -17 -8 -9 -13 7 -4 -3 -10 -24 -14 -20 -4 -40 -4 -45 -1 -5 3
-11 0 -13 -6 -2 -6 -25 -12 -50 -13 -25 0 -44 -5 -41 -10 3 -5 -10 -7 -30 -4
-20 2 -34 1 -31 -3 6 -10 -146 -31 -179 -25 -18 3 -25 1 -21 -6 4 -7 -9 -9
-40 -7 -25 2 -47 0 -49 -6 -2 -6 -12 -4 -22 5 -12 9 -16 10 -11 2 6 -10 -6
-12 -51 -11 -32 1 -64 6 -71 12 -10 8 -12 7 -10 -4 2 -11 -22 -14 -135 -16
-76 -1 -135 2 -132 6 3 5 -5 7 -17 3 -16 -4 -19 -2 -13 9 7 11 6 12 -6 3 -8
-6 -36 -12 -63 -13 -47 -1 -205 15 -237 25 -19 5 -56 70 -46 80 4 4 7 0 7 -9
0 -25 15 -28 29 -4 9 15 9 18 1 10 -9 -8 -17 -6 -31 8 -11 11 -17 24 -14 29 3
4 0 10 -7 12 -9 3 -14 54 -16 188 l-4 183 58 -7 c142 -17 312 -26 484 -25 301
2 330 4 330 13 0 4 15 6 33 3 17 -2 40 0 51 5 13 7 16 7 12 -1 -4 -6 -3 -11 3
-11 5 0 11 3 13 8 2 4 66 17 143 30 168 28 330 67 484 117 90 29 115 34 122
24 6 -10 10 -7 17 11 5 14 12 24 16 23 16 -7 47 -2 42 6 -3 5 1 12 10 15 8 3
12 2 9 -4 -7 -12 3 -12 30 0 l20 9 -20 1 -20 1 20 8 c12 5 23 4 27 -3 5 -7 8
-6 8 4 0 8 32 32 70 53 80 42 80 42 80 22 0 -8 5 -15 11 -15 6 0 9 7 5 15 -5
13 -2 14 16 4 17 -9 20 -9 15 4 -4 10 2 16 19 20 19 3 24 0 24 -15 0 -11 4
-17 10 -13 5 3 6 13 3 22 -4 9 -2 14 3 10 6 -3 10 5 10 19 0 13 -4 24 -10 24
-5 0 27 27 71 59 43 33 103 81 131 106 29 26 49 40 46 31 -7 -18 0 -20 25 -7
10 6 23 6 31 1 9 -6 18 -3 27 8 8 12 12 13 13 4 0 -7 5 -10 10 -7 6 3 10 16
10 28 0 13 -3 17 -8 11 -11 -16 -41 -24 -47 -14 -4 6 -1 10 5 10 8 0 10 9 6
23 -4 17 8 39 50 92 47 59 72 79 104 84 3 0 -4 -6 -14 -14z m-366 -820 c-7 -9
-15 -13 -19 -10 -3 3 1 10 9 15 21 14 24 12 10 -5z m-180 -97 c0 -10 -4 -18
-10 -18 -5 0 -10 2 -10 4 0 2 -2 11 -5 19 -4 8 0 14 10 14 8 0 15 -9 15 -19z"/>
<path d="M13101 5381 c-13 -8 -13 -12 0 -27 12 -15 11 -18 -9 -32 -30 -20 -28
-36 4 -28 18 5 32 2 45 -10 10 -9 25 -14 34 -10 13 5 14 10 4 27 -10 19 -8 25
11 39 31 23 18 43 -16 28 -22 -10 -28 -9 -39 5 -14 20 -15 20 -34 8z"/>
<path d="M12960 5079 c0 -5 5 -7 10 -4 6 3 10 8 10 11 0 2 -4 4 -10 4 -5 0
-10 -5 -10 -11z"/>
<path d="M12830 5056 c0 -2 9 -6 20 -9 11 -3 18 -1 14 4 -5 9 -34 13 -34 5z"/>
<path d="M12185 5019 c-4 -6 -4 -13 -1 -16 3 -4 6 -1 6 6 0 7 5 9 12 5 7 -4 8
-3 4 4 -9 15 -13 15 -21 1z"/>
<path d="M11727 4566 c-17 -13 -17 -14 0 -20 10 -4 14 -4 10 0 -4 4 -2 13 4
21 14 17 9 16 -14 -1z"/>
<path d="M8420 4344 c-497 -28 -923 -136 -1247 -316 -138 -76 -229 -146 -334
-255 -178 -186 -236 -325 -227 -545 8 -181 74 -315 232 -473 208 -208 562
-383 948 -469 735 -165 1523 -89 2108 204 348 174 557 397 612 653 6 28 8 96
6 151 -4 83 -11 117 -39 191 -46 120 -94 191 -209 306 -279 280 -756 473
-1320 533 -143 16 -421 26 -530 20z m421 -305 c376 -29 713 -116 1004 -259
239 -117 387 -230 503 -385 47 -63 122 -208 122 -235 0 -32 -31 -120 -40 -115
-6 3 -7 -1 -4 -9 3 -9 1 -16 -5 -16 -6 0 -8 -6 -5 -13 8 -23 -91 -159 -174
-239 -368 -352 -1123 -562 -1861 -519 -401 24 -720 91 -995 211 -360 157 -584
341 -686 565 -48 106 -50 151 -10 231 62 127 176 259 305 354 164 119 431 244
677 314 339 97 810 144 1169 115z"/>
<path d="M10060 3367 c0 -3 12 -12 26 -22 15 -9 23 -12 20 -6 -7 11 -46 35
-46 28z"/>
<path d="M10155 3298 c22 -18 63 -53 90 -78 l50 -44 -45 48 c-25 26 -65 61
-90 78 l-45 29 40 -33z"/>
<path d="M6959 3283 c-13 -16 -12 -17 4 -4 16 13 21 21 13 21 -2 0 -10 -8 -17
-17z"/>
<path d="M10220 3276 c0 -2 8 -10 18 -17 15 -13 16 -12 3 4 -13 16 -21 21 -21
13z"/>
<path d="M6909 3243 c-13 -16 -12 -17 4 -4 16 13 21 21 13 21 -2 0 -10 -8 -17
-17z"/>
<path d="M10530 2661 c-7 -15 -7 -22 2 -27 7 -4 10 -4 6 1 -4 4 -3 16 3 26 5
11 7 19 5 19 -3 0 -10 -9 -16 -19z"/>
<path d="M10586 2602 c-3 -5 1 -9 9 -9 8 0 12 4 9 9 -3 4 -7 8 -9 8 -2 0 -6
-4 -9 -8z"/>
<path d="M10560 2560 c0 -5 -3 -9 -7 -8 -5 0 -16 -2 -25 -6 -18 -8 -15 -26 3
-26 6 0 7 5 3 12 -5 7 -1 9 12 6 14 -4 20 0 21 13 1 11 0 19 -3 19 -2 0 -4 -4
-4 -10z"/>
<path d="M10576 2455 c-9 -26 -7 -32 5 -12 6 10 9 21 6 23 -2 3 -7 -2 -11 -11z"/>
<path d="M10239 2323 c-13 -16 -12 -17 4 -4 16 13 21 21 13 21 -2 0 -10 -8
-17 -17z"/>
<path d="M10240 2300 c-8 -5 -12 -11 -10 -14 3 -2 14 2 24 10 22 15 10 19 -14
4z"/>
<path d="M10201 2284 c0 -11 3 -14 6 -6 3 7 2 16 -1 19 -3 4 -6 -2 -5 -13z"/>
<path d="M10283 2265 c0 -8 4 -12 9 -9 5 3 6 10 3 15 -9 13 -12 11 -12 -6z"/>
<path d="M10105 2250 c3 -5 8 -10 11 -10 2 0 4 5 4 10 0 6 -5 10 -11 10 -5 0
-7 -4 -4 -10z"/>
<path d="M10236 2220 c-11 -3 -15 -9 -10 -13 10 -6 42 9 34 16 -3 3 -14 1 -24
-3z"/>
<path d="M10162 2208 c2 -7 -3 -12 -9 -10 -7 1 -13 -2 -13 -8 0 -14 16 -12 29
4 8 10 9 16 1 21 -6 4 -9 1 -8 -7z"/>
<path d="M10260 2192 c0 -5 7 -9 15 -9 8 0 12 4 9 9 -3 4 -9 8 -15 8 -5 0 -9
-4 -9 -8z"/>
<path d="M10297 2167 c-3 -8 0 -14 7 -14 7 0 13 6 13 14 0 7 -4 13 -8 13 -4 0
-9 -6 -12 -13z"/>
<path d="M10252 2121 c-11 -7 -11 -9 0 -14 9 -3 15 1 15 9 0 8 -1 14 -1 14 -1
0 -7 -4 -14 -9z"/>
<path d="M10027 2099 c7 -7 15 -10 18 -7 3 3 -2 9 -12 12 -14 6 -15 5 -6 -5z"/>
<path d="M9848 2078 c14 -18 47 -13 35 5 -5 8 -8 7 -11 -1 -3 -10 -7 -10 -20
0 -15 12 -15 11 -4 -4z"/>
<path d="M9811 2064 c0 -11 3 -14 6 -6 3 7 2 16 -1 19 -3 4 -6 -2 -5 -13z"/>
<path d="M10345 2060 c3 -5 11 -10 16 -10 6 0 7 5 4 10 -3 6 -11 10 -16 10 -6
0 -7 -4 -4 -10z"/>
<path d="M10190 2050 c-9 -6 -10 -10 -3 -10 6 0 15 5 18 10 8 12 4 12 -15 0z"/>
<path d="M9849 2013 c-13 -17 -13 -17 6 -3 11 8 22 16 24 17 2 2 0 3 -6 3 -6
0 -17 -8 -24 -17z"/>
<path d="M10043 1945 c0 -7 6 -11 14 -8 7 3 13 6 13 8 0 2 -6 5 -13 8 -8 3
-14 -1 -14 -8z"/>
<path d="M8180 1731 c0 -5 7 -12 16 -15 14 -5 15 -4 4 9 -14 17 -20 19 -20 6z"/>
<path d="M9300 1706 c0 -8 4 -17 9 -20 5 -4 7 3 4 14 -6 23 -13 26 -13 6z"/>
<path d="M9240 1696 c0 -2 8 -10 18 -17 15 -13 16 -12 3 4 -13 16 -21 21 -21
13z"/>
<path d="M9551 1674 c0 -11 3 -14 6 -6 3 7 2 16 -1 19 -3 4 -6 -2 -5 -13z"/>
<path d="M9323 1585 c-3 -9 -3 -18 -1 -21 3 -3 8 4 11 16 6 23 -1 27 -10 5z"/>
<path d="M9280 1586 c0 -2 8 -10 18 -17 15 -13 16 -12 3 4 -13 16 -21 21 -21
13z"/>
<path d="M8146 1565 c-9 -26 -7 -32 5 -12 6 10 9 21 6 23 -2 3 -7 -2 -11 -11z"/>
<path d="M8538 1553 c7 -3 16 -2 19 1 4 3 -2 6 -13 5 -11 0 -14 -3 -6 -6z"/>
<path d="M8588 1483 c6 -2 18 -2 25 0 6 3 1 5 -13 5 -14 0 -19 -2 -12 -5z"/>
</g>
</svg>
